<?xml version="1.0" encoding="UTF-8"?>
<svg xmlns="http://www.w3.org/2000/svg" xmlns:xlink="http://www.w3.org/1999/xlink" version="1.1" id="Layer_1" x="0px" y="0px" viewBox="0 0 160 128.94" xml:space="preserve">
<g>
	<g>
		<g>
			<polygon fill="#FAEA26" points="40.35,108.52 40.35,120.54 42.73,120.54 42.73,115.73 46.38,115.73 46.38,113.65 42.73,113.65      42.73,110.6 46.72,110.6 46.72,108.52    "></polygon>
			<polygon fill="#FAEA26" points="52.15,108.52 52.15,120.54 58.57,120.54 58.57,118.46 54.53,118.46 54.53,115.36 58.05,115.36      58.05,113.28 54.53,113.28 54.53,110.6 58.45,110.6 58.45,108.52    "></polygon>
			<path fill="#FAEA26" d="M68.39,113.41c-1.81-0.67-2.25-1.04-2.25-1.78v-0.22c0-0.64,0.44-1.09,1.29-1.09     c1.01,0,1.41,0.5,1.41,1.91l2.31-0.22c0-2.6-1.17-3.7-3.72-3.7c-2.28,0-3.64,1.19-3.64,3.27v0.3c0,1.84,0.84,2.78,3.18,3.57     c1.51,0.49,1.98,0.94,1.98,1.81v0.18c0,0.79-0.5,1.29-1.43,1.29c-1.02,0-1.56-0.54-1.56-2.13l-2.33,0.22     c0,2.88,1.32,3.92,3.89,3.92c2.31,0,3.79-1.24,3.79-3.39v-0.45C71.33,115.11,70.51,114.17,68.39,113.41"></path>
			<polygon fill="#FAEA26" points="75.8,110.58 78.3,110.58 78.3,120.54 80.7,120.54 80.7,110.58 83.21,110.58 83.21,108.52      75.8,108.52    "></polygon>
			<rect x="88.39" y="108.52" fill="#FAEA26" width="2.38" height="12.02"></rect>
			<path fill="#FAEA26" d="M100.86,114.37c-0.2,0.97-0.47,2.4-0.57,3.25c-0.13-0.85-0.39-2.28-0.6-3.25l-1.32-5.85h-2.5l3.27,12.02     h2.16l3.25-12.02h-2.4L100.86,114.37z"></path>
			<path fill="#FAEA26" d="M111.48,108.52l-3.47,12.02h2.4l0.59-2.4h3.03l0.62,2.4h2.48l-3.49-12.02H111.48z M111.48,116.18     l0.44-1.73c0.4-1.61,0.57-2.92,0.57-2.92s0.18,1.32,0.59,2.92l0.45,1.73H111.48z"></path>
			<polygon fill="#FAEA26" points="124.54,108.52 122.16,108.52 122.16,120.54 128.14,120.54 128.14,118.46 124.54,118.46    "></polygon>
			<path fill="#FAEA26" d="M28.74,32.8c6.37,2,12.89,3.44,19.5,4.33c0.58,0.08,0.79,0.81,0.33,1.17c-4.23,3.41-9.01,5.95-18.75,9.45     c-6.87,2.45,7.54,8.44,12.2,6.39c9.39-4.14,16.35-8.49,20.9-13.04c0.41-0.41,1.13-0.12,1.13,0.47c0,1.22,0.12,2.44,0.37,3.63     c0.82,3.59,4.13,4.53,7.19,2.08c0.1-0.08,0.21-0.13,0.33-0.14c5.68-0.64,12.29-1.75,18-2.69c0.37-0.06,0.7,0.2,0.76,0.58     c0.12,0.72,0.67,1.33,1.43,1.5l0.33,0.02l2.06,0.25c4.65,0.46,7.29-0.12,8.22-1.69c0.39-0.63,0.75-1.25,1.11-1.85     c0.07-0.12,0.17-0.21,0.3-0.27l6.72-3.03c1.47-0.65,2.82-1.24,3.64-1.58c0.38-0.16,0.81,0.06,0.9,0.46     c0.43,1.83,0.95,3.64,1.55,5.43c0.75,2.16,3.77,3.16,8.2,2.76c3.49-0.34,3.61-1.44,2.95-4.02c-0.62-2.37-1.21-5.01-1.71-7.45     c-0.07-0.35,0.15-0.7,0.51-0.78l4.32-0.97l1.31-0.27c2.82-0.57,2.73-2.1-1.04-2.48c-1.11-0.11-2.24-0.13-3.35-0.07     c-0.65,0.04-1.28,0.08-1.93,0.14c-0.35,0.03-0.67-0.21-0.72-0.57c-0.9-6.1-1.11-12.29-0.65-18.44c0.21-3.14-2.09-4.04-9.8-4     c-0.31,0.01-0.63,0.05-0.94,0.09c-2.56,0.52-2.58,3.17-2,8.33c0.05,0.44-0.34,0.8-0.77,0.73c-2.83-0.47-3.95-0.28-5.29,1.83     c-3,4.6-6.69,9.62-10.29,15.17c-0.74,1.15-1.45,2.31-2.19,3.5c-0.44,0.74-0.85,1.43-1.19,2.08c-0.12,0.23-0.36,0.37-0.62,0.35     c-4.18-0.25-8.78-0.2-13.62-0.05c-0.49,0.01-0.82-0.48-0.63-0.93c1.15-2.65,2.1-4.66,3.14-7.28c0.08-0.2,0.24-0.35,0.45-0.4     c6.51-1.69,18.76-4.91,3.09-6.78c-0.44-0.05-0.71-0.51-0.54-0.91c0.73-1.76,1.46-3.55,2.22-5.36c0.09-0.22,0.29-0.37,0.52-0.4     c3.48-0.45,7.69-1.01,11.14-1.82l0.93-0.23c5.32-1.33,3.51-2.34-0.61-2.99c-5.9-0.78-11.84-1.25-17.79-1.42     c-0.02,0-0.04,0-0.06,0c-2.57-0.3-6.38-1.53-7.64,1.86c-2.51,5.95-4.71,12.02-6.61,18.19c-0.14,0.47-0.72,0.61-1.08,0.28     c-0.36-0.33-0.76-0.61-1.2-0.83c-0.02-0.01-0.05-0.02-0.07-0.03c-3.21-1.34-8.83-2.28-15-3.64c-0.66-0.15-0.71-1.07-0.07-1.28     c3.53-1.16,8.7-2.73,12.76-3.81c5.53-1.48-5.26-8.73-8.52-7.57c-6.22,2.27-14.02,4.88-20.85,7.53c-2.88,1.1-4.92,2.53-5.56,4.79     C25.12,30.79,26.28,31.99,28.74,32.8 M109.44,33.7c1.01-1.77,1.9-3.38,2.57-4.72c0.12-0.22,0.23-0.43,0.33-0.63     c0.3-0.57,1.15-0.43,1.24,0.21c0.21,1.43,0.44,2.88,0.71,4.3c0.06,0.34-0.14,0.66-0.47,0.76c-0.62,0.18-1.44,0.42-2.31,0.67     l-1.31,0.38C109.62,34.83,109.14,34.21,109.44,33.7"></path>
			<path fill="#FAEA26" d="M148.28,83.47c0.82-1.08,0.94-2.54,0.32-3.76c-0.14-0.37-0.31-0.74-0.5-1.09     c-2.12-4.04-4.49-7.38-5.55-10.98c-0.1-0.33,0.09-0.67,0.4-0.79c2.57-1,5-2.32,7.25-3.93c0.02-0.01,0.03-0.02,0.05-0.04     c2.91-2.35,2.61-4.29,0.55-5.88c-3.74-2.89-13.29-4.63-19.76-5.5c-2.65-0.34-4.79-0.55-5.87-0.64c-0.04,0-0.08-0.01-0.12-0.02     c-2.63-0.75-5.29-1.36-7.98-1.81c-1.66-0.25-3,0.66-3.47,3.34c-0.83,4.58-1.63,9.39-2.17,14.47c-0.03,0.29-0.24,0.52-0.52,0.58     l-1.94,0.41l-3.06,0.59l-0.68,0.13c-0.41,0.07-0.78-0.24-0.79-0.65c-0.07-5.67-0.01-11.01,0.13-15.97     c0.03-0.46-0.03-0.92-0.17-1.36c-0.57-1.51-2.66-1.03-7.16,1.29c-1.93,0.87-2.66,1.68-2.79,3.46c0,0.04-0.01,0.08-0.02,0.11     c-0.2,0.83-0.53,1.62-1,2.33c-2.93,4.6-6.09,9.03-9.48,13.3c-0.11,0.15-0.29,0.24-0.47,0.25c-4.93,0.4-9.85,0.65-14.74,0.81     c-0.45,0.01-0.78-0.41-0.66-0.85c1.32-4.79,2.55-9.1,3.63-12.91c0.07-0.23,0.26-0.41,0.49-0.46c1.48-0.32,2.93-0.72,4.37-1.17     c0.17-0.06,0.36-0.03,0.52,0.06c3.1,1.73,5.36,1.47,7.49-0.03c6.66-4.75,5.67-6.59-3.58-6.18c-14.36,0.62-29.48,5.59-42.61,6.83     c-4,0.37-5.2,2.58-2,4.9c2.24,1.59,12.17,0.48,17.26-0.54c0.48-0.1,0.89,0.34,0.76,0.82c-1.56,6-2.67,12.1-3.33,18.26     c-0.05,0.42-0.47,0.69-0.87,0.56c-0.82-0.27-1.65-0.51-2.5-0.71c-6.06-1.26-12.19-2.09-18.36-2.48c-0.7-0.04-0.86-0.99-0.22-1.27     c4.77-2.06,9.8-4.11,15.2-5.93c4.53-1.51,3-2.47-4.38-4.68c-2.99-1.07-6.24-1.08-9.24-0.04c-6.39,2.26-12.79,4.19-19.05,6.75     c-4.36,1.59-5.16,3.83-2.95,7.46c1.05,1.75,2.74,2.4,5.7,2.78c4.76,0.6,9.67,1.81,14.87,2.8c0.59,0.11,0.75,0.87,0.25,1.2     c-4.12,2.76-8.96,5.56-14.1,9.21c-3.98,2.81-4.33,6.66-0.37,8.1c6.55,2.33,11.29,1.26,13.59-0.25     c7.43-4.86,14.53-9.91,21.27-15.24c0.41-0.32,1-0.08,1.06,0.44c0.08,0.69,0.21,1.38,0.35,2.06c0.83,3.73,3.7,3.25,9.76-0.67     c1.36-0.78,2.35-2.06,2.75-3.57c0.89-3.44,1.74-6.7,2.57-9.79l0.13-0.48c3.59,0.65,7.11,1.66,10.49,3.01l-0.22,0.26     c-2.53,3.34-4.88,6.49-6.63,9.06c-3.17,4.64-3.24,7.05-1.04,6.84c0.8-0.13,1.59-0.38,2.31-0.77c4.05-2.01,6.26-3.4,7.83-5.99     c1.24-2.05,2.43-4.02,3.63-5.9c0.19-0.3,0.59-0.4,0.9-0.21l0.9,0.53c2.11,1.33,4.08,2.86,5.88,4.58     c2.75,2.45,4.85,5.53,6.12,8.99c0.05,0.66,0.63,1.14,1.29,1.07l0.21,0.01c0.73-0.14,1.45-0.37,2.13-0.68     c1.37-0.59,2.66-1.34,3.87-2.24c1.47-0.93,1.09-1.61,1-3.51c-0.38-6.59-0.62-12.85-0.74-18.79c-0.01-0.32,0.22-0.59,0.53-0.66     c1.18-0.25,2.36-0.52,3.53-0.79l1.57-0.38c0.44-0.11,0.85,0.24,0.82,0.69l-0.02,0.33c-0.37,6.05-0.12,12.12,0.79,18.11     c0.9,5.74,4.4,3.8,7.5,2.7c4-1.41,4.57-2.6,4.64-4.91c0.12-4.86,0.47-9.52,0.9-13.81c0.03-0.26,0.2-0.47,0.44-0.56l3.65-1.27     l0.15-0.05c0.29-0.1,0.6,0,0.77,0.25c7.16,10.51,15.82,13.07,18.46,10.55C148.22,83.55,148.25,83.51,148.28,83.47 M92.38,69.13     c0.43-0.59,0.85-1.2,1.25-1.82c0.36-0.55,1.2-0.33,1.23,0.33c0.01,0.28,0.02,0.57,0.03,0.85c0.01,0.33,0.02,0.67,0.03,1.01     c0.01,0.34-0.24,0.64-0.58,0.68l-0.69,0.09l-1.38,0.18l-0.86,0.09C91.62,70.19,91.99,69.69,92.38,69.13 M94.31,81.47     c-0.91-0.78-1.89-1.48-2.93-2.1c-0.95-0.61-1.9-1.22-2.69-1.69c-0.36-0.22-0.63-0.37-0.85-0.5c-0.34-0.19-0.44-0.62-0.23-0.94     l0.54-0.82l3.65-0.48c0.87-0.11,1.71-0.24,2.56-0.37c0.38-0.06,0.73,0.22,0.76,0.61c0.01,0.12,0.02,0.23,0.02,0.35     c0.08,1.88,0.17,3.69,0.26,5.42C95.44,81.52,94.76,81.85,94.31,81.47 M129.85,62.91c-0.73,0.25-1.5,0.5-2.36,0.77     c-0.48,0.15-0.95-0.28-0.85-0.77c0.43-2.07,0.89-4.04,1.38-5.9c0.08-0.3,0.35-0.5,0.65-0.49l1.72,0.03     C140.5,56.81,140.19,59.37,129.85,62.91"></path>
			<path fill="#FAEA26" d="M148.3,87.55c-0.21,0-0.41,0.02-0.61,0.06c-1.79,0.3-2.35,1.52-1.4,2.81c0.28,0.4,0.63,0.75,1.04,1.02     c1.6,1.06,3.6,0.38,4.31-2.06C152.22,87.28,151.2,86.58,148.3,87.55"></path>
		</g>
	</g>
	<g>
		
			<path fill="none" stroke="#FAEA26" stroke-width="0.5677" stroke-linecap="round" stroke-linejoin="round" stroke-miterlimit="10" d="    M155.43,83.47c-0.26-0.24-0.53-0.46-0.81-0.66c0.26-1.77,0.01-3.61-0.77-5.26c-0.2-0.49-0.43-0.98-0.67-1.44    c-0.71-1.35-1.44-2.62-2.08-3.74c-0.47-0.82-0.91-1.59-1.31-2.32c1.3-0.72,2.56-1.52,3.75-2.37c0.12-0.08,0.24-0.17,0.34-0.26    c3.55-2.87,4.27-5.83,4.24-7.81c-0.02-1.53-0.54-4.47-3.79-6.98c-3.56-2.75-10.19-4.83-20.25-6.32c0.3-1.88-0.14-3.6-0.4-4.6    c-0.19-0.74-0.39-1.53-0.58-2.35l0.63-0.13c5.02-1.01,6.65-4.42,6.52-7.05c-0.18-3.67-3.22-6.16-8.13-6.65    c-0.48-0.05-0.97-0.08-1.46-0.1c-0.38-4.25-0.4-8.54-0.08-12.81c0.17-2.63-0.59-4.93-2.22-6.66c-3.01-3.19-7.99-3.43-13.28-3.4    c-0.07,0-0.14,0-0.23,0.01c-0.47,0.02-0.95,0.07-1.44,0.13c-0.12,0.02-0.24,0.04-0.36,0.06c-3.53,0.71-5.95,3.25-6.63,6.96    c-0.07,0.36-0.12,0.74-0.16,1.14c-1.92-2.42-5.57-3.01-7.43-3.3c-0.06-0.01-0.12-0.02-0.16-0.02c-5.96-0.79-12.07-1.28-18.14-1.46    c-0.24-0.03-0.5-0.07-0.78-0.12c-2.44-0.39-9.84-1.57-12.58,5.53c-0.49,1.17-0.98,2.36-1.45,3.55c-0.28-0.3-0.59-0.6-0.93-0.9    C62.66,12.24,56,7.71,50.7,9.6c-2.26,0.83-4.72,1.69-7.31,2.6c-4.54,1.6-9.24,3.25-13.62,4.95c-1.82,0.7-7.36,2.82-8.99,8.52    c-1.79,6.23,0.43,10.72,6.25,12.66l0.07,0.02c2.24,0.7,4.51,1.34,6.81,1.92c-1.73,0.71-3.68,1.46-5.94,2.27    c-4.21,1.5-5.26,4.38-5.51,5.96c-0.25,1.59-0.14,4.67,3.43,7.42c0.91,0.7,2.04,1.36,3.32,1.96c-0.01,0.04-0.02,0.08-0.03,0.11    c-0.19,0.7-0.36,1.77-0.17,3.03c-0.05,0.02-0.11,0.04-0.16,0.06c-2.07,0.73-4.19,1.45-6.25,2.14c-4.25,1.43-8.64,2.9-12.97,4.67    c-3.82,1.42-6.27,3.59-7.27,6.47c-0.99,2.83-0.48,5.93,1.5,9.21c2.42,4.04,6.34,5.04,9.86,5.49c0.75,0.09,1.51,0.21,2.27,0.33    c-1.25,0.83-2.53,1.7-3.82,2.61c-4.01,2.84-6.01,6.69-5.48,10.58c0.46,3.44,2.82,6.17,6.49,7.51c3.14,1.12,6.2,1.69,9.1,1.69    c5.09,0,8.35-1.77,9.51-2.53c1.06-0.7,2.1-1.39,3.14-2.08c-0.13,0.48-0.2,0.97-0.2,1.49v12.02c0,3.13,2.55,5.68,5.68,5.68h2.38    c1.96,0,3.69-1,4.71-2.51c1.02,1.51,2.75,2.51,4.71,2.51h6.42c1.32,0,2.53-0.45,3.5-1.21c1.51,0.93,3.37,1.43,5.47,1.43    c2.55,0,4.78-0.82,6.43-2.23c1.04,1.23,2.6,2.02,4.34,2.02h2.4c1.48,0,2.84-0.57,3.85-1.51c1.01,0.93,2.36,1.51,3.85,1.51h2.38    c1.65,0,3.14-0.71,4.18-1.84c1.05,1.14,2.56,1.84,4.18,1.84h2.16c1.24,0,2.4-0.41,3.35-1.1c0.96,0.7,2.14,1.1,3.36,1.1h2.4    c0.73,0,1.45-0.14,2.12-0.41c0.67,0.27,1.39,0.41,2.12,0.41h2.48c0.88,0,1.74-0.21,2.51-0.59c0.77,0.38,1.63,0.59,2.52,0.59h5.98    c3.13,0,5.68-2.55,5.68-5.68v-2.08c0-2.4-1.5-4.46-3.6-5.29v-4.65c0-3.13-2.55-5.68-5.68-5.68h-2.38c-1.7,0-3.22,0.75-4.26,1.93    c-1.06-1.19-2.6-1.93-4.26-1.93h-2.16c-1.28,0-2.49,0.44-3.46,1.19c-0.98-0.76-2.21-1.19-3.47-1.19h-1.35    c1.48-0.69,2.9-1.53,4.23-2.51c0.9-0.6,1.58-1.25,2.09-1.92c0.34,0.28,0.7,0.53,1.08,0.75c3.65,2.12,7.44,0.69,9.7-0.16l0.05-0.02    c0.24-0.09,0.49-0.18,0.71-0.26c5.82-2.06,8.26-4.99,8.42-10.12c0.05-2.13,0.15-4.31,0.3-6.57c2.62,2.69,6.2,5.62,10.36,7.12    c-0.02,1.57,0.49,3.15,1.51,4.56c0.69,0.99,1.54,1.82,2.53,2.47c1.41,0.94,3.03,1.44,4.67,1.44c0.95,0,1.89-0.17,2.78-0.49    c2.61-0.96,4.6-3.2,5.47-6.2C158.3,86.97,156.57,84.55,155.43,83.47z M90.83,102.98h-2.38c-0.92,0-1.8,0.22-2.59,0.63    c-0.79-0.4-1.67-0.63-2.59-0.63h-7.41c-1.19,0-2.32,0.38-3.25,1.03c-1.43-0.81-3.17-1.24-5.12-1.24c-2.04,0-3.89,0.53-5.39,1.49    c-0.98-0.8-2.23-1.29-3.6-1.29h-6.3c-0.98,0-1.9,0.24-2.72,0.68c-0.81-0.44-1.74-0.68-2.72-0.68h-5.74    c2.49-1.75,4.9-3.5,7.26-5.27c0.85,0.84,1.76,1.36,2.52,1.67c3.8,1.56,7.79-0.13,11.42-2.29c0.16,0.58,0.39,1.15,0.72,1.71    c1.37,2.32,3.91,3.54,6.77,3.26c0.13-0.01,0.25-0.03,0.38-0.05c1.4-0.23,2.74-0.67,3.97-1.31c4.07-2.02,7.64-4.03,10.11-8.11    c0.27-0.44,0.54-0.89,0.82-1.35c0.59,0.49,1.17,1,1.73,1.53c0.04,0.04,0.08,0.07,0.13,0.12c1.95,1.74,3.47,3.92,4.42,6.33    c0.36,1.41,1.15,2.68,2.27,3.6c0.2,0.16,0.4,0.31,0.61,0.45c-0.26,0.09-0.52,0.19-0.77,0.31    C92.61,103.19,91.74,102.98,90.83,102.98z M97.17,22.3c-0.1,0.15-0.2,0.3-0.31,0.44l-0.02,0.03c-0.17,0.25-0.35,0.5-0.52,0.76    c-0.23-0.31-0.5-0.61-0.82-0.91C96.07,22.52,96.62,22.41,97.17,22.3z"></path>
		
			<path fill="none" stroke="#FAEA26" stroke-width="0.5677" stroke-linecap="round" stroke-linejoin="round" stroke-miterlimit="10" d="    M109.34,47.77c-0.11-0.19-0.22-0.38-0.34-0.56l0.99-0.45C109.76,47.06,109.54,47.4,109.34,47.77z"></path>
		
			<path fill="none" stroke="#FAEA26" stroke-width="0.5677" stroke-linecap="round" stroke-linejoin="round" stroke-miterlimit="10" d="    M80.9,65.97c-1.79,0.13-3.59,0.24-5.45,0.34c0.33-1.18,0.66-2.32,0.97-3.43c2.12,0.84,4.18,1.13,6.16,0.86    C82.03,64.48,81.47,65.23,80.9,65.97z"></path>
	</g>
	<g>
		
			<path fill="none" stroke="#FAEA26" stroke-width="0.5677" stroke-linecap="round" stroke-linejoin="round" stroke-miterlimit="10" d="    M106.86,106.93c-0.54-0.7-1.37-1.11-2.25-1.11h-2.4c-0.72,0-1.39,0.27-1.89,0.72c-0.51-0.45-1.17-0.72-1.89-0.72h-2.5    c-0.88,0-1.72,0.41-2.26,1.11c-0.12,0.15-0.21,0.31-0.29,0.48c-0.46-0.94-1.43-1.59-2.55-1.59h-2.38c-1.16,0-2.15,0.69-2.59,1.68    c-0.44-0.99-1.44-1.68-2.59-1.68h-7.41c-1.42,0-2.6,1.05-2.8,2.41c-1.07-1.69-2.97-2.61-5.56-2.61c-3.07,0-5.34,1.55-6.15,4.01    v-0.97c0-1.57-1.27-2.84-2.84-2.84h-6.3c-1.28,0-2.36,0.85-2.72,2.01c-0.35-1.17-1.44-2.01-2.72-2.01h-6.37    c-1.57,0-2.84,1.27-2.84,2.84v12.02c0,1.57,1.27,2.84,2.84,2.84h2.38c1.57,0,2.84-1.27,2.84-2.84v-1.97h0.82    c1.57,0,2.84-1.27,2.84-2.84v-2.08c0-0.45-0.11-0.88-0.3-1.26c0.16-0.19,0.29-0.4,0.39-0.63v8.79c0,1.57,1.27,2.84,2.84,2.84h6.42    c1.57,0,2.84-1.27,2.84-2.84v-0.48c0.97,2.28,3.08,3.54,6.13,3.54c3.9,0,6.63-2.56,6.63-6.22v-0.45c0-0.6,0-1.85-0.76-3.15    c0.24-0.31,0.42-0.67,0.51-1.07c0.42,0.38,0.96,0.63,1.55,0.7v7.14c0,1.57,1.27,2.84,2.84,2.84h2.4c1.57,0,2.84-1.27,2.84-2.84    v-7.14c0.84-0.1,1.56-0.56,2.02-1.22v8.36c0,1.57,1.27,2.84,2.84,2.84h2.38c1.57,0,2.84-1.27,2.84-2.84v-9.5l2.79,10.25    c0.34,1.24,1.46,2.09,2.74,2.09h2.16c1.28,0,2.41-0.86,2.74-2.1l3.25-12.02C107.58,108.54,107.4,107.63,106.86,106.93z     M60.87,116.86c-0.06-0.07-0.11-0.14-0.18-0.21c0.16-0.35,0.25-0.75,0.25-1.16v-2.08c0-0.34-0.06-0.67-0.17-0.97    c0.09-0.12,0.17-0.25,0.24-0.38c0,1.18,0.25,2.14,0.66,2.92C61.2,115.47,60.9,116.13,60.87,116.86z"></path>
		
			<path fill="none" stroke="#FAEA26" stroke-width="0.5677" stroke-linecap="round" stroke-linejoin="round" stroke-miterlimit="10" d="    M128.2,115.76h-0.77v-7.1c0-1.57-1.27-2.84-2.84-2.84h-2.38c-1.57,0-2.84,1.27-2.84,2.84v9.38l-2.95-10.18    c-0.35-1.21-1.46-2.05-2.73-2.05h-2.16c-1.26,0-2.38,0.84-2.73,2.05l-3.47,12.02c-0.25,0.86-0.08,1.78,0.46,2.49    c0.54,0.71,1.38,1.13,2.27,1.13h2.4c0.83,0,1.6-0.36,2.12-0.95c0.53,0.59,1.29,0.95,2.12,0.95h2.48c0.89,0,1.73-0.42,2.27-1.13    c0.09-0.13,0.17-0.26,0.24-0.39c0.47,0.91,1.42,1.53,2.52,1.53h5.98c1.57,0,2.84-1.27,2.84-2.84v-2.08    C131.04,117.03,129.77,115.76,128.2,115.76z"></path>
		
			<path fill="none" stroke="#FAEA26" stroke-width="0.5677" stroke-linecap="round" stroke-linejoin="round" stroke-miterlimit="10" d="    M151.14,84.47c0.94-1.77,1-3.93,0.11-5.77c-0.17-0.43-0.37-0.86-0.58-1.26c-0.68-1.29-1.37-2.49-2.03-3.65    c-1.03-1.79-1.96-3.41-2.64-4.99c2.07-0.95,4.05-2.1,5.91-3.43c0.07-0.05,0.13-0.1,0.19-0.15c2.14-1.73,3.21-3.6,3.19-5.57    c-0.01-1.24-0.49-3.07-2.69-4.77c-3.36-2.6-10.47-4.64-21.14-6.07c-0.61-0.08-1.21-0.15-1.77-0.22c0.31-0.25,0.6-0.55,0.85-0.9    c1.28-1.83,0.72-3.98,0.39-5.27c-0.42-1.61-0.84-3.41-1.24-5.22l2.21-0.5l1.27-0.26c4.09-0.82,4.28-3.36,4.25-4.12    c-0.15-2.98-3.55-3.76-5.57-3.96c-1.22-0.12-2.48-0.15-3.74-0.08c-0.64-5.24-0.76-10.56-0.36-15.84c0.12-1.85-0.37-3.37-1.45-4.52    c-2.01-2.13-5.62-2.54-11.2-2.5c-0.04,0-0.08,0-0.12,0c-0.38,0.02-0.78,0.06-1.19,0.11c-0.06,0.01-0.12,0.02-0.18,0.03    c-1.37,0.28-3.77,1.26-4.41,4.69c-0.21,1.15-0.22,2.48-0.11,4.11c-1.94,0.06-3.77,0.81-5.38,3.34c-1.38,2.12-2.92,4.34-4.55,6.68    c-1.87,2.7-3.8,5.49-5.75,8.48c-0.75,1.17-1.48,2.34-2.22,3.55c-0.01,0.01-0.01,0.02-0.02,0.03c-0.21,0.35-0.4,0.68-0.58,0.98    c-3.01-0.13-6.13-0.13-9.07-0.07c0.47-1.05,0.92-2.09,1.39-3.22c7.5-1.97,12.03-3.49,11.78-7.09c-0.12-1.72-1.37-2.99-3.72-3.76    c-0.93-0.31-2.12-0.58-3.59-0.82c0.22-0.53,0.44-1.07,0.66-1.6c3.12-0.41,6.98-0.96,10.2-1.71l0.94-0.23    c1.95-0.49,5.57-1.39,5.44-4.45c-0.14-3.12-3.99-3.74-6.29-4.1c-0.02,0-0.05-0.01-0.07-0.01C92.38,9.58,86.33,9.1,80.31,8.93    C80,8.89,79.66,8.83,79.3,8.78c-2.47-0.39-7.6-1.21-9.5,3.79c-2.17,5.17-4.14,10.47-5.86,15.79c-1.8-0.68-4.08-1.24-6.67-1.81    c1.58-0.46,3.16-0.91,4.64-1.3c2.57-0.69,3.33-2.33,3.55-3.25c0.45-1.87-0.41-3.8-2.56-5.73c-2.08-1.87-7.55-5.3-11.22-4    c-2.27,0.83-4.73,1.7-7.34,2.62c-4.52,1.59-9.2,3.24-13.55,4.93c-2.59,0.99-6.16,2.76-7.28,6.65c-1.36,4.74,0.08,7.74,4.4,9.17    c0.02,0,0.03,0.01,0.05,0.01c4.77,1.49,9.65,2.69,14.58,3.58c-3.34,1.99-7.47,3.78-13.6,5.98c-2.69,0.96-3.48,2.56-3.66,3.73    c-0.19,1.18,0.07,2.96,2.36,4.73c1.35,1.04,3.47,2.06,5.79,2.8c-0.97,0.83-1.35,1.74-1.5,2.28c-0.25,0.92-0.36,2.51,1,4.26    c-1.06,0.15-2.1,0.4-3.12,0.76c-2.09,0.74-4.22,1.46-6.29,2.15c-4.22,1.42-8.58,2.89-12.84,4.63c-3.05,1.13-4.89,2.68-5.62,4.76    c-0.71,2.02-0.29,4.25,1.26,6.81c1.79,2.99,4.8,3.75,7.78,4.14c3.03,0.38,6.14,1.02,9.43,1.71c-0.17,0.11-0.34,0.21-0.51,0.32    c-2.79,1.76-5.96,3.76-9.18,6.05c-3.12,2.2-4.69,5.08-4.31,7.88c0.32,2.35,2,4.25,4.63,5.21c3.16,1.13,5.88,1.52,8.14,1.52    c4.32,0,7-1.45,7.95-2.07c6.78-4.43,12.94-8.79,18.74-13.25c0.73,1.87,1.94,2.73,2.91,3.13c2.88,1.18,6.37-0.44,10.72-3.24    c1.99-1.16,3.41-3.02,4.02-5.29c0.6-2.33,1.29-4.99,2-7.66c1.29,0.3,2.57,0.65,3.83,1.05c-1.67,2.23-3.28,4.43-4.59,6.35    c-2.94,4.3-3.72,7.28-2.48,9.39c0.38,0.65,1.54,2.12,4.06,1.88c0.06-0.01,0.12-0.01,0.18-0.02c1.11-0.18,2.17-0.53,3.14-1.04    c3.81-1.89,6.89-3.62,8.97-7.05c0.79-1.3,1.61-2.66,2.45-4.02c1.58,1.07,3.08,2.28,4.48,3.61c0.02,0.02,0.04,0.04,0.06,0.06    c2.33,2.08,4.14,4.71,5.25,7.61c0.19,0.88,0.67,1.68,1.36,2.26c0.75,0.62,1.71,0.95,2.67,0.92l0.04,0c0.24,0.02,0.49,0,0.73-0.05    c0.96-0.19,1.88-0.48,2.74-0.87c1.53-0.66,2.98-1.5,4.33-2.5c2.57-1.68,2.39-3.8,2.28-5.2c-0.02-0.23-0.04-0.49-0.06-0.8    c-0.33-5.81-0.57-11.48-0.7-16.89c0.2-0.04,0.4-0.09,0.59-0.13c-0.18,5.43,0.14,10.84,0.94,16.14c0.43,2.78,1.47,4.61,3.17,5.6    c2.48,1.44,5.25,0.4,7.27-0.37c0.27-0.1,0.55-0.21,0.81-0.3c4.7-1.66,6.41-3.62,6.53-7.52c0.09-3.84,0.34-7.85,0.75-12.21    l0.95-0.33c3.73,5.01,9.36,10.13,15.2,11.15c-0.1,0.17-0.18,0.34-0.26,0.53c-0.57,1.41-0.33,3.02,0.68,4.41    c0.48,0.7,1.09,1.28,1.78,1.74c0.96,0.64,2.03,0.96,3.1,0.96c0.61,0,1.22-0.11,1.81-0.32c1.75-0.64,3.1-2.2,3.71-4.3    c0.71-2.52-0.13-3.98-0.95-4.76C152.78,84.87,151.96,84.57,151.14,84.47z M130.41,59.52c0.29,0.01,0.57,0.02,0.83,0.03    c-0.29,0.11-0.59,0.23-0.92,0.35C130.35,59.77,130.38,59.64,130.41,59.52z M111.96,35.23C111.96,35.24,111.96,35.24,111.96,35.23    C111.96,35.24,111.96,35.24,111.96,35.23C111.96,35.24,111.96,35.24,111.96,35.23z M91.58,49.44c0.14,0.03,0.28,0.05,0.43,0.06    l2.24,0.26c0.02,0,0.04,0,0.06,0.01c0.3,0.03,0.62,0.06,0.93,0.08c-1.71,0.92-3.28,2.34-3.56,5.22c-0.12,0.46-0.32,0.89-0.58,1.29    c-0.01,0.01-0.01,0.02-0.02,0.03c-2.68,4.21-5.61,8.34-8.73,12.32c-3.44,0.27-6.97,0.47-10.71,0.62c0.88-3.16,1.72-6.1,2.49-8.79    c0.83-0.2,1.65-0.43,2.47-0.67c3.51,1.69,6.69,1.48,9.67-0.64c3.37-2.4,6.34-5.04,5.28-8.1c-0.64-1.87-2.33-2.75-4.89-3.1    c0.73-0.12,1.45-0.24,2.15-0.35C89.49,48.54,90.45,49.18,91.58,49.44z M64.06,50.07c-2.65,0.5-5.28,1.04-7.88,1.58    c-1.34,0.28-2.67,0.55-3.99,0.82c3.7-2.05,6.89-4.16,9.56-6.31C62.16,47.77,62.96,49.12,64.06,50.07z M46.69,65.8    c1.48-0.14,2.92-0.33,4.22-0.52c-0.98,4.23-1.75,8.53-2.3,12.85c-0.07-0.02-0.13-0.03-0.2-0.05c-0.02-0.01-0.05-0.01-0.08-0.02    c-3.29-0.69-6.63-1.25-9.99-1.69c2.18-0.85,4.51-1.71,6.92-2.52c1.47-0.49,4.53-1.51,4.49-4.31    C49.73,67.81,48.61,66.71,46.69,65.8z M110.86,52c-0.69,3.81-1.46,8.29-2.02,13.1l-1.53,0.3c-0.02-4.37,0.03-8.8,0.15-13.22    c0.04-0.8-0.06-1.58-0.3-2.34c-0.01-0.05-0.03-0.09-0.05-0.14c-0.42-1.11-1.23-1.95-2.29-2.38c0.15-0.19,0.29-0.39,0.42-0.6    c0.27-0.44,0.53-0.87,0.78-1.29l6.08-2.74c0.42-0.18,0.85-0.37,1.27-0.56c0.3,1.08,0.63,2.14,0.99,3.2    c0.15,0.44,0.35,0.84,0.57,1.21C113.08,47.12,111.43,48.75,110.86,52z"></path>
	</g>
</g>
</svg>
