<?xml version="1.0" encoding="UTF-8"?>
<svg xmlns="http://www.w3.org/2000/svg" xmlns:xlink="http://www.w3.org/1999/xlink" version="1.1" id="Layer_1" x="0px" y="0px" width="154px" height="154px" viewBox="0 0 154 154" xml:space="preserve">
<g>
	<polygon fill="#231F20" points="122.03,127.98 36.19,127.98 18.96,110.38 18.96,40.09 134.85,40.09 134.85,115.58  "></polygon>
	<path fill="#FCEE22" d="M77.13,2C35.63,2,2,35.65,2,77.14c0,41.49,33.63,75.13,75.13,75.13c41.49,0,75.14-33.64,75.14-75.13   C152.27,35.65,118.62,2,77.13,2 M97.2,46.29c0-0.92,0.75-1.67,1.67-1.67h30.6c0.92,0,1.67,0.75,1.67,1.67l-0.05,37.94l-10.09-1.27   V68.81c0-0.75-0.6-1.36-1.35-1.36h-10.97c-0.75,0-1.35,0.6-1.35,1.36v12.44L97.2,79.97V46.29z M60.16,46.29   c0-0.92,0.75-1.67,1.67-1.67h30.61c0.91,0,1.66,0.75,1.66,1.67v6.99H75.96c-0.76,0-1.36,0.61-1.36,1.36v3.43   c0,0.75,0.61,1.36,1.36,1.36H94.1v8.02H75.96c-0.76,0-1.36,0.6-1.36,1.36v3.43c0,0.75,0.61,1.35,1.36,1.35H94.1v6.45   c0,0-29.36,3.44-32.6,3.79c-1.13,0.13-1.34-1.15-1.34-1.34V46.29z M23.12,73.49h18.76c0.75,0,1.35-0.61,1.35-1.36v-3.43   c0-0.75-0.61-1.36-1.35-1.36H23.12V46.29c0-0.92,0.75-1.67,1.67-1.67h30.59c0.92,0,1.67,0.75,1.67,1.67v6.99H38.01   c-0.75,0-1.36,0.61-1.36,1.36v3.43c0,0.75,0.61,1.36,1.36,1.36h19.06v23.17c0,1.08-1.34,1.08-1.34,1.08l-32.6-4.75V73.49z    M24.14,106.71c-0.56,0-1.01-0.47-1.01-1.04V83.05l20.07,2.93v19.69c0,0.57-0.45,1.04-1.01,1.04H24.14z M58.38,99.68h-6.42   c-0.44,0-0.8,0.36-0.8,0.8v6.23h-5.93V87.3c0-0.43,0.27-0.79,0.66-0.92l12.83,1.88l6.4-0.75l-0.03,19.21h-5.9v-6.23   C59.18,100.05,58.82,99.68,58.38,99.68 M86.59,106.71H84.4l-9.75-6.59c-0.26-0.2-0.62-0.22-0.92-0.07   c-0.3,0.15-0.49,0.45-0.49,0.79v5.87l-4.89,0c-0.57,0-1.02-0.47-1.02-1.04V87.26c1.1-0.15,1.6-0.15,2.76-0.33l10.21,7.2   c0.15,0.12,0.33,0.17,0.52,0.17c0.14,0,0.28-0.03,0.4-0.09c0.29-0.15,0.48-0.46,0.48-0.79v-7.83l5.88-0.69v20.78   C87.6,106.24,87.14,106.71,86.59,106.71 M107.79,106.71H90.88c-0.56,0-1.02-0.47-1.02-1.04V84.64l6.07-0.71l12.88,1.61v4.47H98.47   c-0.45,0-0.82,0.38-0.82,0.83v8.96c0,0.47,0.37,0.83,0.82,0.83h10.34v5.06C108.81,106.24,108.36,106.71,107.79,106.71    M121.29,95.03h9.86v3.76h-9.86c-0.4,0-0.73,0.33-0.73,0.73v2.25c0,0.41,0.33,0.73,0.73,0.73h9.86v3.17c0,0.57-0.46,1.04-1.02,1.04   H112.1c-0.56,0-1.02-0.47-1.02-1.04V85.83l20.07,2.51v2.98h-9.86c-0.4,0-0.73,0.33-0.73,0.72v2.26   C120.57,94.7,120.89,95.03,121.29,95.03"></path>
	<path fill="#FCEE22" d="M101.08,119.67c-0.1-0.4-0.21-0.77-0.31-1.13c-0.1-0.37-0.19-0.7-0.26-0.96c-0.09,0.27-0.18,0.6-0.28,0.96   c-0.1,0.36-0.2,0.73-0.3,1.13c-0.12,0.39-0.23,0.8-0.34,1.21c-0.1,0.42-0.21,0.82-0.32,1.21h2.47c-0.1-0.39-0.22-0.79-0.32-1.21   C101.3,120.47,101.19,120.06,101.08,119.67"></path>
	<path fill="#FCEE22" d="M37.37,94.72l-6.18-3.42c-0.31-0.18-0.69-0.17-0.99,0.01c-0.31,0.18-0.49,0.5-0.49,0.87v6.83   c0,0.36,0.18,0.68,0.49,0.87c0.16,0.09,0.34,0.14,0.51,0.14c0.17,0,0.34-0.04,0.48-0.13l6.18-3.42c0.32-0.17,0.53-0.51,0.53-0.87   C37.9,95.23,37.69,94.89,37.37,94.72"></path>
	<path fill="#FCEE22" d="M108.69,59.4h10.97c0.75,0,1.35-0.6,1.35-1.36V55.9v-0.7v-0.6c0-0.74-0.6-1.36-1.35-1.36h-10.97   c-0.75,0-1.35,0.61-1.35,1.36v0.6v0.7v2.14C107.33,58.79,107.94,59.4,108.69,59.4"></path>
	<path fill="#FCEE22" d="M59.18,92.93v-0.4v-0.36c0-0.44-0.36-0.79-0.8-0.79h-6.42c-0.44,0-0.8,0.35-0.8,0.79v0.36v0.4v1.26   c0,0.43,0.36,0.79,0.8,0.79h6.42c0.44,0,0.8-0.36,0.8-0.79V92.93z"></path>
</g>
<g>
	<path fill="#231F20" d="M44.81,125.25l2.13-10.08h5.49l-0.26,1.23h-3.64l-0.32,1.47h3.59l-0.25,1.22h-3.59l-1.3,6.16H44.81z"></path>
	<path fill="#231F20" d="M61.79,125.25h-5.73v-10.08h5.72v1.7h-3.01v0.74h2.96v1.63h-2.96v4.24h3.02V125.25z"></path>
	<path fill="#231F20" d="M67.36,118.19c0,0.17,0.03,0.3,0.1,0.38s0.19,0.18,0.39,0.3c0.03,0.02,0.08,0.05,0.18,0.11   c0.09,0.06,0.2,0.12,0.33,0.19c0.13,0.07,0.26,0.15,0.4,0.24c0.14,0.09,0.27,0.17,0.38,0.25c0.19,0.14,0.33,0.27,0.44,0.39   s0.19,0.26,0.24,0.4c0.05,0.15,0.08,0.31,0.1,0.49c0.01,0.18,0.02,0.41,0.02,0.67v1.63c0,0.47-0.03,0.84-0.1,1.12   c-0.06,0.28-0.18,0.5-0.35,0.64c-0.17,0.15-0.41,0.25-0.71,0.29s-0.69,0.07-1.17,0.07c-0.45,0-0.82-0.02-1.12-0.07   c-0.29-0.05-0.53-0.14-0.7-0.29c-0.17-0.14-0.29-0.36-0.35-0.64c-0.06-0.28-0.1-0.66-0.1-1.14v-2h2.02v2   c0,0.11,0.01,0.19,0.04,0.22s0.09,0.06,0.2,0.06s0.18-0.02,0.2-0.06c0.03-0.04,0.04-0.11,0.04-0.22v-1.81   c0-0.13-0.03-0.23-0.08-0.29c-0.05-0.07-0.15-0.14-0.29-0.23c-0.03-0.02-0.12-0.06-0.24-0.13c-0.13-0.07-0.27-0.16-0.43-0.25   c-0.16-0.09-0.32-0.19-0.49-0.3c-0.16-0.11-0.29-0.2-0.4-0.27c-0.14-0.11-0.26-0.22-0.34-0.34c-0.08-0.12-0.14-0.24-0.18-0.38   c-0.04-0.14-0.07-0.3-0.08-0.47c-0.01-0.17-0.02-0.38-0.02-0.61v-1c0-0.47,0.03-0.84,0.09-1.12c0.06-0.28,0.17-0.49,0.34-0.64   c0.17-0.15,0.4-0.25,0.7-0.29c0.29-0.05,0.68-0.07,1.15-0.07c0.47,0,0.85,0.02,1.15,0.07s0.53,0.14,0.7,0.29   c0.17,0.15,0.29,0.36,0.35,0.64c0.06,0.28,0.1,0.65,0.1,1.12v1.28h-2.03v-1.28c0-0.11-0.01-0.19-0.04-0.22   c-0.03-0.04-0.09-0.06-0.2-0.06s-0.18,0.02-0.2,0.06s-0.04,0.11-0.04,0.22V118.19z"></path>
	<path fill="#231F20" d="M77.27,116.39h-1.1l-1.88,8.86h-1.47l1.88-8.86h-1.11l0.25-1.23h3.68L77.27,116.39z"></path>
	<path fill="#231F20" d="M81.96,125.25H80.5l2.13-10.08h1.47L81.96,125.25z"></path>
	<path fill="#231F20" d="M87.05,125.25l1-10.08h1.48l-1.05,8.26h0.05l2.53-8.26h1.54l-3.41,10.08H87.05z"></path>
	<path fill="#231F20" d="M97.69,115.04c0.46,0,0.84,0.02,1.14,0.07s0.53,0.14,0.71,0.29c0.17,0.15,0.29,0.36,0.36,0.64   c0.06,0.28,0.1,0.65,0.1,1.12v8.09h-1.44v-2h-1.12v2h-2v-8.09c0-0.47,0.03-0.84,0.1-1.12c0.06-0.28,0.18-0.49,0.34-0.64   c0.17-0.15,0.4-0.25,0.7-0.29S97.23,115.04,97.69,115.04z M97.42,121.54h1.12v-4.39c0-0.05-0.02-0.1-0.07-0.13s-0.1-0.07-0.17-0.09   c-0.06-0.02-0.13-0.04-0.2-0.04c-0.07-0.01-0.13-0.01-0.18-0.01c-0.11,0-0.22,0.02-0.33,0.06s-0.17,0.11-0.17,0.22V121.54z"></path>
	<path fill="#231F20" d="M108.69,125.25h-5.53l2.13-10.08h1.85l-1.86,8.81h3.68L108.69,125.25z"></path>
</g>
</svg>
