<?xml version="1.0" encoding="UTF-8"?>
<svg xmlns="http://www.w3.org/2000/svg" id="Layer_1" version="1.1" viewBox="0 0 160 160">
  <defs>
    <style>
      .st0 {
        fill: #000200;
      }

      .st1 {
        fill: #fff;
      }
    </style>
  </defs>
  <rect class="st0" x="15" y="15" width="130" height="130"></rect>
  <g>
    <polygon class="st1" points="81.2 69.4 86.1 69.4 109.1 69.4 82.8 43.6 81.2 42.2 81.2 35.1 86.1 35.1 120.2 35.1 125.1 35.1 125.1 44.8 120.2 44.8 97.3 44.8 123.5 70.5 125.1 72 125.1 79.1 120.2 79.1 86.1 79.1 81.2 79.1 81.2 69.4"></polygon>
    <polygon class="st1" points="34.9 74.1 34.9 40.3 34.9 35.1 41.9 35.1 43.4 36.7 69.1 63 69.1 40.3 69.1 35.1 78.8 35.1 78.8 40.3 78.8 74.1 78.8 79.1 71.7 79.1 70.3 77.4 44.5 51.2 44.5 74.1 44.5 79.1 34.9 79.1 34.9 74.1"></polygon>
    <polygon class="st1" points="78.8 90.6 78.8 80.9 44.5 80.9 34.9 80.9 34.9 124.9 44.5 124.9 44.5 107.7 69.1 107.7 69.1 98 44.5 98 44.5 90.6 78.8 90.6"></polygon>
  </g>
  <g id="Layer_2_copy">
    <g>
      <path class="st1" d="M110.4,89.9c-.5,0-.9.2-1,.7,0,.2-.1,1.2-.1,2.8s0,2.6.1,2.8c.2.5.5.7,1,.7s.9-.2,1-.7c0-.2.1-1.2.1-2.8s0-2.6-.1-2.8c-.1-.5-.5-.7-1-.7Z"></path>
      <path class="st1" d="M81.2,80.9v44.1h43.9v-44.1h-43.9ZM98.8,115.9c.1,0,.1,0,.1.2v1.5c0,.1,0,.2-.1.2h-6.2c-.1,0-.2,0-.2-.2v-1.4c0,0,0-.2,0-.2l3.6-4.3c.4-.5.6-.9.6-1.4,0-.7-.4-1.2-1.1-1.2s-1.1.4-1.2,1.2c0,.1,0,.1-.2.1l-1.7-.3c-.1,0-.1,0-.1-.2,0-.7.4-1.4,1-1.9s1.3-.8,2.3-.8,1.7.3,2.3.8.9,1.3.9,2.1-.3,1.7-1,2.5l-2.7,3.2h0s3.6,0,3.6,0h0ZM98.8,96.8c.1,0,.1,0,.1.2v1.5c0,.1,0,.2-.1.2h-6.2c-.1,0-.2,0-.2-.2v-1.4c0,0,0-.2,0-.2l3.6-4.3c.4-.5.6-.9.6-1.4,0-.7-.4-1.2-1.1-1.2s-1.1.4-1.2,1.2c0,.1,0,.1-.2.1l-1.7-.3c-.1,0-.1,0-.1-.2,0-.7.4-1.4,1-1.9s1.3-.8,2.3-.8,1.7.3,2.3.8.9,1.3.9,2.1-.3,1.7-1,2.5l-2.7,3.2h0s3.6,0,3.6,0h0ZM113.6,115.9c-.4,1.2-1.6,1.9-3.1,1.9s-1.6-.2-2.2-.6c-.6-.4-.9-1-1-1.7,0,0,0-.2.1-.2l1.6-.3c0,0,.2,0,.2.1.2.6.6.8,1.2.8s.9-.2,1.1-.7c0-.2.1-.5.1-1s0-.8-.1-1c-.2-.5-.5-.7-1.1-.7s-.8.2-1,.6c0,.1-.1.1-.2.1h-1.6c-.1,0-.2,0-.2-.1v-5.7c0-.1,0-.1.2-.1h5.8c.1,0,.1,0,.1.1v1.5c0,.1,0,.2-.1.2h-4c0,0,0,0,0,0v2h0c.4-.3.9-.5,1.6-.5,1.4,0,2.3.6,2.7,1.8.1.4.2,1,.2,1.8,0,.6,0,1.1-.2,1.6ZM113.6,96.7c-.4,1.3-1.5,2.1-3.1,2.1s-2.7-.8-3.1-2.1c-.2-.5-.2-1.5-.2-3.2s0-2.8.2-3.2c.4-1.3,1.5-2.1,3.1-2.1s2.7.8,3.1,2.1c.2.5.2,1.5.2,3.2,0,1.7,0,2.8-.2,3.2Z"></path>
    </g>
  </g>
</svg>
