<?xml version="1.0" encoding="UTF-8"?>
<svg xmlns="http://www.w3.org/2000/svg" xmlns:xlink="http://www.w3.org/1999/xlink" version="1.1" id="Layer_1" x="0px" y="0px" viewBox="0 0 160 64" xml:space="preserve">
<g>
	<g>
		<path fill="#FFFFFF" d="M15.45,44.81H7.53l-2.68,5.18H0.79l12.1-22.37h3.77l3.43,22.37h-3.99L15.45,44.81z M15.08,41.76    l-0.59-4.84c-0.25-1.81-0.47-3.74-0.5-5.08c-0.47,1.25-1.4,3.21-2.4,5.08l-2.5,4.84H15.08z"></path>
		<path fill="#FFFFFF" d="M46.34,34.61l-7.49,15.38h-4.18l-0.62-12.14l-5.21,12.14h-4.18l-1.84-15.38h4.06l0.56,11.95l5.02-11.95    h4.31l0.72,11.85l4.9-11.85H46.34z"></path>
		<path fill="#FFFFFF" d="M45.81,46.12l0.06-0.37c0.44-2.53,2.56-3.96,5.65-4.27l4.71-0.47l0.16-0.87c0.34-1.75-0.47-2.75-2.34-2.75    s-2.81,0.75-3.12,2.34l-3.53-0.34c0.53-3.06,2.68-5.08,7.02-5.08c4.37,0,6.61,2.15,5.74,6.58l-1.78,9.11h-3.43l0.06-1.68    c-1.53,1.31-3.31,2.03-5.37,2.03C46.8,50.33,45.4,48.65,45.81,46.12z M55.29,45.69l0.5-2.46l-3.46,0.41    c-1.56,0.16-2.34,0.9-2.53,1.87l-0.03,0.22c-0.22,1.12,0.37,1.75,1.62,1.75C53.01,47.46,54.32,46.65,55.29,45.69z"></path>
		<path fill="#FFFFFF" d="M71.56,41.38l4.27,8.61h-4.27l-3.09-6.55l-2.06,1.84l-0.9,4.71h-3.93l4.34-22.37h3.93l-2.59,13.38    l6.89-6.4h4.68L71.56,41.38z"></path>
		<path fill="#FFFFFF" d="M92.68,41.26l-0.37,1.9h-9.98l-0.06,0.41c-0.41,2.34,0.53,3.81,2.65,3.81c1.97,0,2.84-0.9,3.34-2.56    l3.53,0.41c-0.75,3.03-2.84,5.12-7.27,5.12c-4.43,0-6.89-2.53-6.15-6.8l0.59-2.96c0.72-4.02,3.53-6.27,7.8-6.27    C91.12,34.3,93.52,36.8,92.68,41.26z M82.79,40.79h6.18L89,40.6c0.44-2.15-0.56-3.37-2.56-3.37S83.17,38.32,82.79,40.79z"></path>
		<path fill="#FFFFFF" d="M97.73,34.61h3.53l-0.09,1.62c1.53-1.19,3.28-1.93,5.18-1.93c3.34,0,4.8,2.06,4.06,5.8l-1.93,9.89h-3.93    l1.87-9.58c0.37-1.87-0.34-2.84-1.84-2.84c-1.44,0-2.78,0.75-3.84,1.72l-2.06,10.7h-3.93L97.73,34.61z"></path>
		<path fill="#FFFFFF" d="M114.7,40.37h3.93l-1.93,9.62h-3.93L114.7,40.37z M114.7,37.23c0-1.5,0.87-2.62,2.84-2.62    c1.62,0,2.34,0.9,2.34,2c0,1.59-0.9,2.59-2.78,2.59C115.45,39.2,114.7,38.32,114.7,37.23z"></path>
		<path fill="#FFFFFF" d="M124.34,34.61h3.53l-0.09,1.62c1.53-1.19,3.28-1.93,5.18-1.93c3.34,0,4.8,2.06,4.06,5.8l-1.93,9.89h-3.93    l1.87-9.58c0.37-1.87-0.34-2.84-1.84-2.84c-1.43,0-2.78,0.75-3.84,1.72l-2.06,10.7h-3.93L124.34,34.61z"></path>
		<path fill="#FFFFFF" d="M157.04,33.39l-1.72-2.4c-1.59,0.87-2.99,2.21-3.96,3.65c-0.78-0.28-1.72-0.41-2.78-0.41    c-4.31,0-6.86,1.81-7.39,4.9l-0.12,0.75c-0.28,1.62,0.16,2.93,1.19,3.84c-1.72,0.66-2.87,1.87-2.87,3.46    c0,0.87,0.86,2.81,4.24,2.71h3.41c2.01,0,3.03,1.63,3.11,2.59c0.16,1.91-0.5,3.48-1.02,4.45c-1.1,2.02-2.73,2.39-4.19,2.43    l-0.87,2.88c3.66-0.1,5.76-0.74,7.74-3.56c0.91-1.29,1.11-2.49,1.45-3.97c0.37-1.65,0.49-7.6-5.83-7.62h-2.97    c-0.84,0-1.34-0.31-1.34-0.94c0-0.59,0.41-1.06,1.28-1.4c0.72,0.19,1.53,0.28,2.46,0.28c4.18,0,6.83-1.72,7.36-4.87l0.16-0.75    c0.25-1.44-0.09-2.68-0.94-3.59C154.42,34.8,155.54,34.02,157.04,33.39z M150.64,39.51l-0.06,0.47c-0.28,1.56-1.28,2.25-3.28,2.25    c-1.97,0-2.78-1-2.53-2.46l0.09-0.44c0.25-1.5,1.31-2.28,3.21-2.28C150.05,37.04,150.89,38.01,150.64,39.51z"></path>
	</g>
	<g>
		<path fill="#FFFFFF" d="M76.53,2.3h8.05c5.37,0,8.67,2.84,7.61,8.52l-1.22,6.24c-1.03,5.33-4.99,7.61-10.54,7.61h-8.24L76.53,2.3z     M80.55,21.3c3.59,0,5.77-1.19,6.46-4.74l1.06-5.52c0.72-3.74-1.09-5.37-4.55-5.37h-3.68L76.81,21.3H80.55z"></path>
		<path fill="#FFFFFF" d="M95.61,15.05h3.93l-1.93,9.62h-3.93L95.61,15.05z M95.61,11.91c0-1.5,0.87-2.62,2.84-2.62    c1.62,0,2.34,0.9,2.34,2c0,1.59-0.9,2.59-2.78,2.59C96.36,13.88,95.61,13,95.61,11.91z"></path>
		<path fill="#FFFFFF" d="M119.54,15.05h3.93l-1.93,9.62h-3.93L119.54,15.05z M119.54,11.91c0-1.5,0.87-2.62,2.84-2.62    c1.62,0,2.34,0.9,2.34,2c0,1.59-0.9,2.59-2.78,2.59C120.29,13.88,119.54,13,119.54,11.91z"></path>
		<path fill="#FFFFFF" d="M118.32,9.29l-8.67,15.38h-4.06l-2.65-15.38h4.18l1.28,11.42l5.8-11.42H118.32z"></path>
		<path fill="#FFFFFF" d="M129.1,9.29h3.53l-0.09,1.62c1.53-1.19,3.28-1.93,5.18-1.93c3.34,0,4.8,2.06,4.06,5.8l-1.93,9.89h-3.93    l1.87-9.58c0.37-1.87-0.34-2.84-1.84-2.84c-1.43,0-2.78,0.75-3.84,1.72l-2.06,10.7h-3.93L129.1,9.29z"></path>
		<path fill="#FFFFFF" d="M159.04,15.94l-0.37,1.9h-9.98l-0.06,0.41c-0.41,2.34,0.53,3.81,2.65,3.81c1.97,0,2.84-0.9,3.34-2.56    l3.53,0.41c-0.75,3.03-2.84,5.12-7.27,5.12c-4.43,0-6.89-2.53-6.15-6.8l0.59-2.96c0.72-4.02,3.53-6.27,7.8-6.27    C157.48,8.98,159.89,11.47,159.04,15.94z M149.15,15.47h6.18l0.03-0.19c0.44-2.15-0.56-3.37-2.56-3.37S149.53,13,149.15,15.47z"></path>
	</g>
	<g>
		<path fill="#FFFFFF" d="M20,19.49h-7.92l-2.68,5.18H5.33L17.44,2.3h3.77l3.43,22.37h-3.99L20,19.49z M19.62,16.43l-0.59-4.84    c-0.25-1.81-0.47-3.74-0.5-5.08c-0.47,1.25-1.4,3.21-2.4,5.08l-2.5,4.84H19.62z"></path>
		<path fill="#FFFFFF" d="M27.79,18.74l0.72-3.65c0.75-4.15,2.87-6.11,6.46-6.11c2.18,0,3.77,0.81,4.71,1.78L41.3,2.3h3.93    L40.9,24.67h-3.53l0.09-1.62c-1.53,1.31-3.31,1.93-5.12,1.93C28.92,24.98,27.08,22.64,27.79,18.74z M37.84,20.24l1.28-6.52    c-0.69-1-1.93-1.62-3.34-1.62c-1.87,0-2.96,1.03-3.4,3.28l-0.56,3.03c-0.41,2.18,0.41,3.46,2.34,3.46    C35.53,21.86,36.84,21.21,37.84,20.24z"></path>
		<path fill="#FFFFFF" d="M45.36,20.8l0.06-0.37c0.44-2.53,2.56-3.96,5.65-4.27l4.71-0.47l0.16-0.87c0.34-1.75-0.47-2.75-2.34-2.75    s-2.81,0.75-3.12,2.34l-3.53-0.34c0.53-3.06,2.68-5.08,7.02-5.08c4.37,0,6.61,2.15,5.74,6.58l-1.78,9.11H54.5l0.06-1.68    c-1.53,1.31-3.31,2.03-5.37,2.03C46.35,25.01,44.95,23.33,45.36,20.8z M54.84,20.37l0.5-2.46l-3.46,0.41    c-1.56,0.16-2.34,0.9-2.53,1.87l-0.03,0.22c-0.22,1.12,0.37,1.75,1.62,1.75C52.56,22.14,53.87,21.33,54.84,20.37z"></path>
	</g>
</g>
</svg>
