<?xml version="1.0" encoding="UTF-8"?>
<svg xmlns="http://www.w3.org/2000/svg" id="a" data-name="Layer 1" width="150.27" height="134.13" viewBox="0 0 150.27 134.13">
  <g>
    <path d="M59.53,63.88v-18.36h-15.17c-.58,0-1.06-.48-1.06-1.06v-2.71c0-.58,.48-1.06,1.06-1.06h15.17v-5.51c0-.77-.58-1.35-1.35-1.35h-24.26c-.77,0-1.35,.58-1.35,1.35v16.81h14.88c.58,0,1.06,.48,1.06,1.06v2.71c0,.58-.48,1.06-1.06,1.06h-14.88v4.25l25.9,3.67s1.06,0,1.06-.87Z" style="fill: #171577;"></path>
    <path d="M32.57,82.24c0,.48,.29,.87,.77,.87v.1h14.4c.39,0,.77-.39,.77-.87v-15.66l-15.95-2.32v17.88Zm5.22-10.63c0-.29,.1-.48,.39-.68,.19-.1,.48-.1,.77,0l4.93,2.71c.19,.1,.39,.39,.39,.68s-.1,.58-.39,.68l-4.93,2.71c-.1,.1-.29,.1-.39,.1s-.29,0-.39-.1c-.29-.1-.39-.39-.39-.68v-5.41Z" style="fill: #171577;"></path>
    <path d="M109.97,71.51c0-.29,.29-.58,.58-.58h7.83v-2.32l-15.95-2.03v15.75c0,.48,.29,.87,.77,.87h14.3c.39,0,.77-.39,.77-.87v-2.51h-7.83c-.29,0-.58-.29-.58-.58v-1.74c0-.29,.29-.58,.58-.58h7.83v-3h-7.83c-.29,0-.58-.29-.48-.58v-1.84Z" style="fill: #171577;"></path>
    <path d="M91.42,61.94l8.02,.97v-9.86c0-.58,.48-1.06,1.06-1.06h8.7c.58,0,1.06,.48,1.06,1.06v11.31l8.02,.97v-30.15c0-.77-.58-1.35-1.35-1.35h-24.26c-.77,0-1.35,.58-1.35,1.35h.1v26.77Zm8.02-19.13v-1.06c0-.58,.48-1.06,1.06-1.06h8.7c.58,0,1.06,.48,1.06,1.06v2.8c0,.58-.48,1.06-1.06,1.06h-8.7c-.68,0-1.16-.48-1.06-1.06v-1.74Z" style="fill: #171577;"></path>
    <path d="M50.44,66.97c-.29,.19-.48,.39-.48,.77v15.46h4.74v-4.93c0-.39,.29-.68,.68-.68h5.12c.39,0,.68,.29,.58,.58v4.93h4.64v-15.27l-5.12,.58-10.15-1.45Zm10.73,4.64v1.55c0,.39-.29,.68-.68,.68h-5.12c-.39,0-.68-.29-.68-.68v-1.55c0-.39,.29-.68,.68-.68h5.12c.39,0,.68,.29,.68,.68Z" style="fill: #171577;"></path>
    <path d="M79.05,72.57c0,.19-.19,.48-.39,.58-.1,.1-.19,.1-.29,.1s-.29,0-.39-.1l-8.12-5.7c-.97,.19-1.35,.19-2.22,.29v14.4c0,.48,.29,.87,.77,.87h3.87v-4.64c0-.19,.19-.48,.39-.58,.29-.1,.58-.1,.77,.1l7.73,5.22h1.74c.48,0,.77-.29,.77-.77v-16.52l-4.64,.58v6.18Z" style="fill: #171577;"></path>
    <path d="M63.01,64.84c2.61-.29,25.9-3,25.9-3v-5.12h-14.4c-.58,0-1.06-.48-1.06-1.06v-2.71c0-.58,.48-1.06,1.06-1.06h14.4v-6.38h-14.4c-.58,0-1.06-.48-1.06-1.06v-2.71c0-.58,.48-1.06,1.06-1.06h14.4v-5.51c0-.77-.68-1.35-1.35-1.35h-24.26c-.77,0-1.35,.58-1.35,1.35v28.6c0,.19,.19,1.16,1.06,1.06Z" style="fill: #171577;"></path>
    <path d="M85.52,65.62v16.62c0,.48,.29,.87,.77,.87h13.43c.48,0,.87-.29,.87-.68v-4.06h-8.21c-.39,0-.68-.29-.68-.68v-7.15c0-.39,.29-.68,.68-.68h8.21v-3.58l-10.24-1.26-4.83,.58Z" style="fill: #171577;"></path>
    <path d="M38.17,77.7c.1,.1,.29,.1,.39,.1s.29,0,.39-.1l4.93-2.71c.29-.1,.39-.39,.39-.68s-.19-.58-.39-.68l-4.93-2.71c-.29-.1-.58-.1-.77,0-.29,.19-.39,.39-.39,.68v5.41c0,.29,.1,.58,.39,.68Z" style="fill: #fff;"></path>
    <path d="M100.5,45.61h8.7c.58,0,1.06-.48,1.06-1.06v-2.8c0-.58-.48-1.06-1.06-1.06h-8.7c-.58,0-1.06,.48-1.06,1.06v2.8c-.1,.58,.39,1.06,1.06,1.06Z" style="fill: #fff;"></path>
    <path d="M75.38,0C42.42,0,15.75,26.67,15.75,59.62s26.67,59.62,59.62,59.62,59.62-26.67,59.62-59.62S108.33,0,75.38,0Zm17.3,33.82h24.26c.77,0,1.35,.58,1.35,1.35v30.15l-8.02-.97v-11.31c0-.58-.48-1.06-1.06-1.06h-8.7c-.58,0-1.06,.48-1.06,1.06v9.86l-8.02-.97v-26.77h-.1c0-.77,.58-1.35,1.35-1.35Zm-30.73,1.35c0-.77,.58-1.35,1.35-1.35h24.26c.68,0,1.35,.58,1.35,1.35v5.51h-14.4c-.58,0-1.06,.48-1.06,1.06v2.71c0,.58,.48,1.06,1.06,1.06h14.4v6.38h-14.4c-.58,0-1.06,.48-1.06,1.06v2.71c0,.58,.48,1.06,1.06,1.06h14.4v5.12s-23.29,2.71-25.9,3c-.87,.1-1.06-.87-1.06-1.06v-28.6Zm-29.38,21.65h14.88c.58,0,1.06-.48,1.06-1.06v-2.71c0-.58-.48-1.06-1.06-1.06h-14.88v-16.81c0-.77,.58-1.35,1.35-1.35h24.26c.77,0,1.35,.58,1.35,1.35v5.51h-15.17c-.58,0-1.06,.48-1.06,1.06v2.71c0,.58,.48,1.06,1.06,1.06h15.17v18.36c0,.87-1.06,.87-1.06,.87l-25.9-3.67v-4.25Zm15.95,25.51c0,.48-.39,.87-.77,.87h-14.4v-.1c-.48,0-.77-.39-.77-.87v-17.88l15.95,2.32v15.66Zm17.2,.77h-4.64v-4.93c.1-.29-.19-.58-.58-.58h-5.12c-.39,0-.68,.29-.68,.68v4.93h-4.74v-15.46c0-.39,.19-.58,.48-.77l10.15,1.45,5.12-.58v15.27Zm17.97-.77c0,.48-.29,.77-.77,.77h-1.74l-7.73-5.22c-.19-.19-.48-.19-.77-.1-.19,.1-.39,.39-.39,.58v4.64h-3.87c-.48,0-.77-.39-.77-.87v-14.4c.87-.1,1.26-.1,2.22-.29l8.12,5.7c.1,.1,.29,.1,.39,.1s.19,0,.29-.1c.19-.1,.39-.39,.39-.58v-6.18l4.64-.58v16.52Zm16.91-12.47h-8.21c-.39,0-.68,.29-.68,.68v7.15c0,.39,.29,.68,.68,.68h8.21v4.06c0,.39-.39,.68-.87,.68h-13.43c-.48,0-.77-.39-.77-.87v-16.62l4.83-.58,10.24,1.26v3.58Zm9.86,4.06h7.83v3h-7.83c-.29,0-.58,.29-.58,.58v1.74c0,.29,.29,.58,.58,.58h7.83v2.51c0,.48-.39,.87-.77,.87h-14.3c-.48,0-.77-.39-.77-.87v-15.75l15.95,2.03v2.32h-7.83c-.29,0-.58,.29-.58,.58v1.84c-.1,.29,.19,.58,.48,.58Z" style="fill: #fff;"></path>
    <path d="M55.37,70.93c-.39,0-.68,.29-.68,.68v1.55c0,.39,.29,.68,.68,.68h5.12c.39,0,.68-.29,.68-.68v-1.55c0-.39-.29-.68-.68-.68h-5.12Z" style="fill: #fff;"></path>
  </g>
  <g>
    <line x1="52.67" y1="25.32" x2="52.86" y2="25.22" style="fill: none;"></line>
    <rect x="39.52" y="20.39" width="25.9" height="9.76" style="fill: #ec1c24;"></rect>
    <path d="M56.82,22.52h5.7v1.35h-1.93v4.16h-1.84v-4.16h-1.93v-1.35Zm-2.22,0h1.84v5.51h-1.84v-5.51Zm-6.47,0h2.03l1.06,1.74,1.06-1.74h2.03l-1.84,2.71,2.03,2.8h-2.13l-1.16-1.74-1.16,1.74h-2.13l2.03-2.9-1.84-2.61Zm-5.12,0h5.03v1.16h-3.09v.87h2.9v1.16h-2.9v1.06h3.09v1.26h-5.12v-5.51h.1Z" style="fill: #fff;"></path>
    <g>
      <path d="M61.85,27.35h.48v-.1h-.39v.1h-.1Zm0-.29h0q0-.1,0,0v-.19h0v-.1c.1,0,.1,.1,.1,.29v-.29h0v.29c.1-.1,0-.1-.1,0h0Zm0-.77v-.19c0,.1,.1,.19,.19,.19v-.39c0-.1-.1-.19-.1-.29h0s.1,.1,.1,.29,.1,.29,.1,.39,0,.19-.1,.19c-.1-.1-.19-.1-.19-.19h0Zm0-.87v-.1h.1c-.1,0-.1-.1-.1-.1v-.1l.1,.1s.1,0,.19,.1c.1,0,.1,.1,.1,.1h-.39Zm0-.48v-.1h0c.1,0,.19,0,.19-.1-.1,0-.19-.1-.19-.19,0,0,0-.1,.1-.1l.1-.1s.1-.1,.1-.19c0,0,0-.1,.1-.1,0,0,.1,0,.1,.1s0,.19-.1,.19l-.19,.19s.1,0,.19,.1c.1,0,.1,.1,.1,.1,0,0,0,.1-.1,.1-.19,.1-.29,.1-.39,.1h0Zm-.19,1.93v.29h-1.26v.1h1.16v.58h0s.1,0,.1-.1v-.58h0v-.1h0v-.29q.1,.1,0,.1h0Zm.19-2.03v.39q-.1-.1-.1-.19c-.1-.1,0-.1,.1-.19h0Zm0,.48v.1h-.19s-.1,0-.1-.1c0,0,0-.1,.1-.1h.19v.1Zm0,.77v.19c-.1-.1-.1-.29-.1-.68v.68h0v-.58c0-.19,.1-.29,.1-.29,0,0,.1,.1,.1,.19-.19,.29-.1,.48-.1,.48h0Zm0,.58v.1c0-.1-.1-.1,0-.1-.1,.1-.19,.1-.19,.1,0,0,0,.1,.1,.1l.1,.1v.1q-.1,0-.19-.1c-.1-.1-.1-.19-.1-.19,0,0,0-.1,.1-.1q0-.1,.19,0-.1-.1,0,0Z" style="fill: #fff;"></path>
      <path d="M61.65,28.02h0q-.1,0,0,0l-.1-.1v-.58h-1.16v-.1s.1-.1,.1,0h1.06v-.48q0-.1,.1-.1h.1c.1,0,.19,.1,.19,.19v-.19q0-.1,.1-.1t.1,.1v.29c0,.1-.1,.19-.19,.19h-.1v.1h.39s.1,0,.1,.1,0,.1-.1,.1h-.39v.48h0v.1q-.1,0-.19,0h0Zm0-.1h0v-.1h0v-.48h0v-.19h0v.19h0v.58h0Zm.19-.97h0c.1-.29,0-.39-.1-.39h-.1v.19h0v-.1s0-.1,.1-.1,.1,0,.1,.1v.29h0Zm.19-.39h0c0,.19,0,.29-.1,.29v.1c.1,0,.1-.1,.1-.19,0,0,0-.1,0-.19h0Zm-.19,.29h0q-.1,0,0,0c0-.19-.1-.19-.1-.19h0q-.1,.1,.1,.19h0c-.1-.1-.1,0,0,0Zm.1-.39c-.1,0-.19-.1-.29-.39v.29q0,.1-.1,.1s-.1,0-.1-.1h0v-.48c0-.1,.1-.29,.19-.29s.1,.19,.1,.19v.39c0,.1,.1,.19,.1,.19v-.39c0-.1,0-.19-.1-.29h0s0-.1,.1-.1c0,0,.1,0,.19,.29,0,.19,.1,.29,.1,.39,0,.1-.1,.19-.19,.19Zm-.29-.77h0c.1,.29,.1,.68,.29,.68,0,0,.1,0,.1-.19,0-.1,0-.19-.1-.39,0-.19-.1-.29-.1-.29h0c0,.1,.1,.19,.1,.29v.39h0c-.1,0-.19-.1-.19-.29,0,.19,0,0-.1-.19l.1-.1c-.1-.1-.1,0-.1,.1-.1,.19-.1,.29-.1,.39v.19h0c.1-.29,.1-.48,.1-.58Zm.48-.29h-.48q-.1,0-.1-.1,0-.1,.1-.1h.19c-.1-.1-.19-.19-.19-.29s.1-.19,.19-.19h.1c-.1,0-.1-.1-.1-.19,0,0,0-.1,.1-.1s.1-.1,.1-.1l.1-.1q0-.1,.1-.1,.1,0,.1,.1c0,.1,0,.19-.1,.19l-.1,.1h.1c.1,0,.1,.1,.1,.1,0,0,0,.1-.1,.1h-.19q-.1,0-.1,.1s0,.1,.1,.1l.1,.1,.1,.1c.1,0,.1,.1,.1,.1-.1,.19-.19,.19-.19,.19h0Zm-.48-.1h0q0,.1,0,0h.48l-.1-.1-.1-.1c-.1,0-.1-.1-.1-.1q-.1-.1-.1-.19c0-.1,.1-.1,.1-.1h.19s.1,0,.1-.1h-.1q-.1,0-.19,.1c-.1,0-.1,.1-.1,.1,0,.1,.1,.19,.29,.29l.1,.1h-.48v.1Zm.48-1.06h0c0,.1,0,.19-.1,.19l-.1,.1s-.1,0-.1,.1c0,0,.1,.1,.19,.1h.1l-.1-.1c-.1,0-.1-.1-.19-.1h0l.1-.1c.1,0,.1-.1,.1-.1,.1,.1,.1,0,.1-.1h0Z" style="fill: #fff;"></path>
    </g>
  </g>
  <g>
    <path d="M71.99,26.77h-.77l-.1,.77h-.97l.39-3.09h1.74c.97,0,1.26,.58,1.16,1.16s-.48,1.16-1.45,1.16Zm-.19-.77c.58,0,.68-.19,.68-.39s0-.39-.58-.39h-.58l-.1,.77h.58Z" style="fill: #171577;"></path>
    <path d="M76.44,26.77l.68,.77h-.97l-.58-.77h-.19l-.29,.77h-.97l.39-3.09h1.74c.97,0,1.26,.58,1.16,1.16,0,.58-.19,.97-.97,1.16Zm-1.16-.77h.58c.58,0,.68-.19,.68-.39s0-.39-.58-.39h-.58l-.1,.77Z" style="fill: #171577;"></path>
    <path d="M80.98,26.77l-.1,.77h-2.71l.39-3.09h2.71l-.1,.77h-1.74l-.1,.48h1.55v.68h-1.55l-.1,.48h1.74v-.1Z" style="fill: #171577;"></path>
    <path d="M84.56,25.32c-.39-.1-.48-.1-1.06-.1-.39,0-.48,.1-.58,.29,0,.19,.1,.19,.29,.19h.58c.97,0,.87,.77,.87,.87-.1,.87-.68,1.06-1.45,1.06-.97,0-1.26-.1-1.26-.1l.1-.77c.48,.1,.87,.1,.87,.1,.58,0,.68,0,.77-.29,0-.19-.1-.19-.29-.19h-.39c-1.06,0-.97-.68-.87-.87,.1-.48,.19-1.06,1.55-1.06,.77,0,1.16,.1,1.16,.1l-.29,.77Z" style="fill: #171577;"></path>
    <path d="M88.23,26.77l-.1,.77h-2.71l.39-3.09h2.8l-.1,.77h-1.74l-.1,.48h1.55l-.1,.68h-1.55l-.1,.48h1.74v-.1Z" style="fill: #171577;"></path>
    <path d="M91.8,24.45h.97l-.39,3.09h-1.16l-.77-1.84-.29,1.84h-.97l.39-3.09h1.16l.77,1.84,.29-1.84Z" style="fill: #171577;"></path>
    <path d="M96.35,25.22h-.87l-.29,2.32h-.97l.29-2.32h-.87l.1-.77h2.8l-.19,.77Z" style="fill: #171577;"></path>
    <path d="M99.73,25.32c-.39-.1-.48-.1-1.06-.1-.39,0-.48,.1-.58,.29,0,.19,.1,.19,.29,.19h.48c.97,0,.87,.77,.87,.87-.1,.87-.68,1.06-1.45,1.06-.97,0-1.26-.1-1.26-.1l.1-.77c.48,.1,.87,.1,.87,.1,.58,0,.68,0,.77-.29,0-.19-.1-.19-.29-.19h-.39c-1.06,0-.97-.68-.87-.87,.1-.48,.19-1.06,1.55-1.06,.77,0,1.16,.1,1.16,.1l-.19,.77Z" style="fill: #171577;"></path>
  </g>
  <g>
    <path d="M46.48,92.29h2.22l-.19,1.26h-2.22l-.19,1.35h-1.74l.68-4.83h4.25l-.19,1.26h-2.61v.97Z" style="fill: #171577;"></path>
    <path d="M56.82,93.64l-.19,1.26h-4.25l.68-4.83h4.25l-.19,1.26h-2.61l-.1,.58h2.32l-.19,1.06h-2.32l-.1,.58h2.71v.1Z" style="fill: #171577;"></path>
    <path d="M64.75,91.51c-.58-.19-1.06-.19-1.64-.19s-.68,.1-.68,.29,.1,.29,.39,.29h.58c1.55,0,1.45,1.35,1.35,1.45-.19,1.45-1.06,1.64-2.32,1.64-1.84,0-2.03-.19-2.03-.19l.19-1.35c.77,.19,1.55,.19,1.55,.19,.48,0,.77,0,.87-.29,0-.19,0-.29-.39-.29h-.48c-1.74,0-1.55-1.16-1.55-1.45,.1-.77,.29-1.64,2.42-1.64,1.26,0,1.84,.19,1.84,.19l-.1,1.35Z" style="fill: #171577;"></path>
    <path d="M72.86,91.42h-1.35l-.48,3.48h-1.74l.48-3.48h-1.35l.19-1.26h4.45l-.19,1.26Z" style="fill: #171577;"></path>
    <path d="M77.7,94.9h-1.74l.68-4.83h1.74l-.68,4.83Z" style="fill: #171577;"></path>
    <path d="M85.81,90.16h1.84l-1.93,4.83h-3.19l-.58-4.83h1.74l.39,3.48h.29l1.45-3.48Z" style="fill: #171577;"></path>
    <path d="M93.45,94.22h-1.84l-.29,.68h-1.74l1.93-4.83h3.19l.58,4.83h-1.74l-.1-.68Zm-1.35-1.26h1.16l-.19-1.55h-.29l-.68,1.55Z" style="fill: #171577;"></path>
    <path d="M100.7,93.64h2.61l-.19,1.26h-4.25l.68-4.83h1.74l-.58,3.58Z" style="fill: #171577;"></path>
  </g>
  <g>
    <polygon points="3.69 96.59 3.67 96.64 5.41 97.12 5.5 96.91 3.69 96.59"></polygon>
    <polygon points="6.79 97.14 6.86 97.51 8.89 97.99 9.08 97.54 6.79 97.14"></polygon>
    <polygon points="17.34 99 16.91 100.02 21.16 101.08 21.65 99.83 20.4 99.54 17.34 99"></polygon>
    <polygon points="28.12 100.9 28.31 102.92 30.15 103.4 29.91 101.22 28.12 100.9"></polygon>
    <polygon points="26.11 100.55 24.64 101.95 26.48 102.43 28.11 100.9 26.11 100.55"></polygon>
    <polygon points="34.56 102.04 33.63 104.27 35.37 104.75 36.37 102.36 34.56 102.04"></polygon>
    <polygon points="42.19 103.38 40.47 103.08 39.33 105.82 43.58 106.88 44.07 105.62 41.46 104.95 42.19 103.38"></polygon>
    <polygon points="47.26 107.85 51.51 108.91 51.99 107.65 49.48 107.07 49.67 106.49 51.99 107.07 52.47 106.01 50.15 105.43 50.35 104.85 52.96 105.53 53.04 105.3 48.64 104.52 47.26 107.85"></polygon>
    <polygon points="67.65 112.97 69.39 113.45 71.32 108.81 69.58 108.33 67.65 112.97"></polygon>
    <polygon points="77.7 112.97 77.21 110.26 75.18 109.78 73.25 114.42 74.99 114.9 75.96 112.68 76.44 115.29 78.47 115.77 80.4 111.13 78.66 110.65 77.7 112.97"></polygon>
    <polygon points="86.49 117.9 90.74 118.96 91.22 117.7 88.71 117.12 88.91 116.54 91.22 117.12 91.71 116.06 89.39 115.48 89.58 114.9 92.19 115.58 92.67 114.32 88.42 113.26 86.49 117.9"></polygon>
    <polygon points="99.63 116.16 97.99 117.7 97.8 115.67 95.96 115.19 96.25 117.8 94.12 119.83 95.96 120.31 97.6 118.77 97.8 120.8 99.63 121.28 99.34 118.67 101.47 116.64 99.63 116.16"></polygon>
    <polygon points="106.88 117.99 105.14 117.51 103.21 122.15 104.95 122.63 106.88 117.99"></polygon>
    <polygon points="113.64 123.41 111.04 122.73 112.58 119.44 110.84 118.96 108.91 123.6 113.16 124.66 113.64 123.41"></polygon>
    <polygon points="121.57 125.43 119.06 124.85 119.25 124.27 121.57 124.85 122.05 123.79 119.73 123.21 119.93 122.63 122.54 123.31 123.02 122.05 118.77 120.99 116.83 125.63 121.09 126.69 121.57 125.43"></polygon>
    <polygon points="145.05 127.75 143.31 127.27 141.38 131.91 143.12 132.39 145.05 127.75"></polygon>
    <polygon points="146.89 133.36 148.63 133.84 149.59 131.62 150.06 134.13 150.27 134.13 150.27 129.07 148.82 128.72 146.89 133.36"></polygon>
    <path d="M150.27,122.46v-2.16l-.48-.08,.48-1.51v-6.26L0,85.93v3.09l.29-.31,1.84,.29L.1,91.23l.48,2.61-.58-.09v4.17l141.37,36.22h8.69l-.47-2.51-.97,2.22-1.74-.48,1.93-4.64,1.45,.35v-2.83l-47.41-12.15,47.41,8.37Zm-8.12-8.72l1.84,.29,.39,2.03,1.55-1.64,1.84,.29-2.03,2.22,.48,2.61-1.84-.29-.39-2.03-1.55,1.64-1.84-.29,2.03-2.22-.48-2.61Zm-7.83-1.45l4.35,.77-.39,1.26-2.61-.48-.19,.58,2.32,.39-.39,1.06-2.32-.39-.19,.58,2.61,.58-.39,1.26-4.35-.77,1.55-4.83Zm-13.53-2.32l2.03,.39,.68,2.61,.87-2.32,1.74,.29-1.55,4.83-2.03-.39-.77-2.61-.77,2.32-1.74-.29,1.55-4.83Zm-5.6-.97l1.74,.29-1.55,4.83-1.74-.29,1.55-4.83Zm-25.03-4.45l4.35,.77-.39,1.26-2.61-.48-.19,.58,2.32,.39-.39,1.06-2.32-.39-.19,.58,2.61,.58-.39,1.26-4.35-.77,1.55-4.83Zm-8.12-1.45l1.74,.29-1.16,3.58,2.61,.48-.39,1.26-4.35-.77,1.55-4.83Zm-3.87-.68l-1.55,4.83-1.74-.29,1.55-4.83,1.74,.29Zm-9.18-1.64l.39,2.03,1.55-1.64,1.84,.29-2.03,2.22,.48,2.61-1.84-.29-.39-2.03-1.55,1.64-1.84-.29,2.03-2.22-.48-2.61,1.84,.29Zm-5.32-.97l-.39,1.26-2.61-.48-.19,.58,2.32,.39-.39,1.06-2.32-.39-.19,.58,2.61,.58-.39,1.26-4.35-.77,1.55-4.83,4.35,.77Zm-15.75-2.71l.68,2.61,.77-2.32,1.74,.29-1.55,4.83-2.03-.39-.77-2.61-.68,2.32-1.74-.29,1.55-4.83,2.03,.39Zm-5.89-1.06l-1.55,4.83-1.74-.29,1.55-4.83,1.74,.29Zm-18.26-3.29l-.39,1.26-2.61-.48-.19,.58,2.32,.39-.39,1.06-2.32-.39-.19,.58,2.61,.58-.39,1.26-4.35-.77,1.55-4.83,4.35,.77Zm-10.73-1.84l-1.16,3.58,2.61,.48-.39,1.26-4.35-.77,1.55-4.83,1.74,.29Zm-7.15,3.87l-1.74-.29,1.55-4.83,1.74,.29-1.55,4.83Zm-2.22,1.84l.02-.05,1.81,.32-.09,.21-1.74-.48Zm3.19,.87l-.07-.37,2.29,.4-.19,.45-2.03-.48Zm14.3,3.58l-4.25-1.06,.43-1.02,3.07,.54,1.24,.29-.48,1.26Zm3.48,.87l1.47-1.41,2,.35-1.63,1.54-1.84-.48Zm3.67,.97l-.19-2.02,1.79,.32,.24,2.19-1.84-.48Zm5.32,1.35l.93-2.23,1.81,.32-1,2.4-1.74-.48Zm9.95,2.61l-4.25-1.06,1.14-2.74,1.72,.3-.74,1.56,2.61,.68-.48,1.26Zm25.8,6.57l-1.74-.48,1.93-4.64,1.74,.48-1.93,4.64Zm9.08,2.32l-2.03-.48-.48-2.61-.97,2.22-1.74-.48,1.93-4.64,2.03,.48,.48,2.71,.97-2.32,1.74,.48-1.93,4.64Zm13.72-.19l-2.61-.68-.19,.58,2.32,.58-.48,1.06-2.32-.58-.19,.58,2.51,.58-.48,1.26-4.25-1.06,1.93-4.64,4.25,1.06-.48,1.26Zm7.44,5.7l-1.84-.48-.19-2.03-1.64,1.55-1.84-.48,2.13-2.03-.29-2.61,1.84,.48,.19,2.03,1.64-1.55,1.84,.48-2.13,2.03,.29,2.61Zm43.68,5.99l1.74,.48-1.93,4.64-1.74-.48,1.93-4.64Zm-24.55-6.28l4.25,1.06-.48,1.26-2.61-.68-.19,.58,2.32,.58-.48,1.06-2.32-.58-.19,.58,2.51,.58-.48,1.26-4.25-1.06,1.93-4.64Zm-7.92-2.03l1.74,.48-1.55,3.29,2.61,.68-.48,1.26-4.25-1.06,1.93-4.64Zm-5.7-1.45l1.74,.48-1.93,4.64-1.74-.48,1.93-4.64Zm-52.18-11.98l-2.61-.68-.19,.58,2.32,.58-.48,1.06-2.32-.58-.19,.58,2.51,.58-.48,1.26-4.25-1.06,1.39-3.32,4.4,.78-.09,.23Z" style="fill: #f7e700;"></path>
    <polygon points=".1 91.23 2.13 89 .29 88.71 0 89.02 0 93.74 .58 93.83 .1 91.23"></polygon>
    <polygon points="7.44 89.97 5.7 89.68 4.16 94.51 5.89 94.8 7.44 89.97"></polygon>
    <polygon points="9.76 95.48 14.11 96.25 14.5 94.99 11.89 94.51 13.05 90.94 11.31 90.65 9.76 95.48"></polygon>
    <polygon points="17.88 96.83 22.23 97.6 22.61 96.35 20 95.77 20.2 95.19 22.52 95.57 22.9 94.51 20.58 94.12 20.78 93.54 23.39 94.03 23.77 92.77 19.42 92 17.88 96.83"></polygon>
    <polygon points="38.75 100.6 40.49 100.89 42.04 96.06 40.3 95.77 38.75 100.6"></polygon>
    <polygon points="44.36 101.57 46.1 101.86 46.77 99.54 47.55 102.14 49.57 102.53 51.12 97.7 49.38 97.41 48.61 99.73 47.93 97.12 45.9 96.73 44.36 101.57"></polygon>
    <polygon points="57.79 103.88 62.14 104.66 62.52 103.4 59.91 102.82 60.11 102.24 62.43 102.63 62.81 101.57 60.49 101.18 60.69 100.6 63.3 101.08 63.68 99.83 59.33 99.05 57.79 103.88"></polygon>
    <polygon points="65.62 105.33 67.45 105.62 69 103.98 69.39 106.01 71.22 106.3 70.74 103.69 72.77 101.47 70.93 101.18 69.39 102.82 69 100.79 67.16 100.5 67.65 103.11 65.62 105.33"></polygon>
    <polygon points="74.89 106.98 76.63 107.27 78.18 102.43 76.44 102.14 74.89 106.98"></polygon>
    <polygon points="85.23 107.46 82.62 106.98 83.78 103.4 82.04 103.11 80.5 107.94 84.85 108.72 85.23 107.46"></polygon>
    <polygon points="93.35 108.91 90.74 108.33 90.94 107.75 93.25 108.14 93.64 107.07 91.32 106.69 91.51 106.11 94.12 106.59 94.51 105.33 90.16 104.56 88.62 109.39 92.96 110.17 93.35 108.91"></polygon>
    <polygon points="116.93 109.3 115.19 109.01 113.64 113.84 115.38 114.13 116.93 109.3"></polygon>
    <polygon points="121.76 112.77 122.54 115.38 124.56 115.77 126.11 110.94 124.37 110.65 123.5 112.97 122.83 110.36 120.8 109.97 119.25 114.8 120.99 115.09 121.76 112.77"></polygon>
    <polygon points="137.51 116.64 134.9 116.06 135.1 115.48 137.42 115.87 137.8 114.8 135.48 114.42 135.68 113.84 138.29 114.32 138.67 113.06 134.32 112.29 132.78 117.12 137.13 117.9 137.51 116.64"></polygon>
    <polygon points="142.44 118.86 143.99 117.22 144.38 119.25 146.21 119.54 145.73 116.93 147.76 114.71 145.92 114.42 144.38 116.06 143.99 114.03 142.15 113.74 142.64 116.35 140.61 118.57 142.44 118.86"></polygon>
    <polygon points="150.27 120.3 150.27 118.71 149.79 120.22 150.27 120.3"></polygon>
  </g>
</svg>
