<svg xmlns="http://www.w3.org/2000/svg" xmlns:xlink="http://www.w3.org/1999/xlink" id="Layer_1" x="0px" y="0px" viewBox="0 0 330 330" style="enable-background:new 0 0 330 330;" xml:space="preserve"><style type="text/css">	.st0{fill:none;}	.st1{fill:none;stroke:#424348;}	.st2{fill:#FFFFFF;}</style><g id="Block" transform="translate(-1276 -1402)">	<g id="Ellipse_428" transform="translate(1276 1402)">		<circle class="st0" cx="165.74" cy="165.19" r="165"></circle>		<circle class="st1" cx="165.74" cy="165.19" r="164.5"></circle>	</g>	<g id="Ellipse_429" transform="translate(1329 1455)">		<circle class="st0" cx="113.24" cy="112.69" r="112.5"></circle>		<circle class="st1" cx="113.24" cy="112.69" r="112"></circle>	</g>	<path id="iconmonstr-arrow-20" class="st2" d="M1418.94,1539.09v13.2h28.8l-38.2,38.2l9.3,9.3l38.2-38.2v28.8h13.2l-0.1-51.3  H1418.94z"></path>	<g>		<path class="st2" d="M1444.22,1422.13l2.73,0.13l-0.54,11.05l7.82,0.38l-0.12,2.39l-10.54-0.51L1444.22,1422.13z"></path>		<path class="st2" d="M1461.52,1423.52l2.72,0.4l-1.95,13.31l-2.72-0.4L1461.52,1423.52z"></path>		<path class="st2" d="M1470.43,1424.84l2.93,0.74l1.58,10.99l6.62-8.91l2.93,0.74l-9.02,11.6l-2.62-0.66L1470.43,1424.84z"></path>		<path class="st2" d="M1491.07,1430.68l10.62,4.3l-0.9,2.22l-8.09-3.27l-1.01,2.49l7.17,2.9l-0.84,2.08l-7.17-2.9l-1.41,3.47   l8.26,3.34l-0.89,2.21l-10.79-4.37L1491.07,1430.68z"></path>		<path class="st2" d="M1517.71,1443.57l2.28,1.5l-6.1,9.23l6.53,4.32l-1.32,2l-8.8-5.82L1517.71,1443.57z"></path>		<path class="st2" d="M1527.57,1458.44c0.67-0.76,1.43-1.33,2.27-1.72c0.84-0.39,1.71-0.58,2.62-0.59s1.82,0.18,2.75,0.55   s1.82,0.94,2.68,1.7c0.86,0.76,1.53,1.57,2.02,2.45c0.49,0.88,0.79,1.77,0.89,2.67c0.1,0.9,0.02,1.79-0.26,2.67   c-0.28,0.88-0.76,1.7-1.43,2.46c-0.68,0.77-1.44,1.34-2.28,1.73c-0.84,0.39-1.72,0.59-2.63,0.61c-0.91,0.01-1.84-0.17-2.77-0.54   s-1.83-0.94-2.69-1.69c-0.86-0.76-1.53-1.58-2.01-2.46c-0.48-0.88-0.77-1.78-0.87-2.68s0-1.8,0.28-2.69   C1526.41,1460.03,1526.89,1459.21,1527.57,1458.44z M1529.61,1460.25c-0.46,0.52-0.78,1.07-0.96,1.65   c-0.18,0.58-0.24,1.17-0.16,1.76c0.07,0.59,0.26,1.16,0.58,1.72c0.31,0.56,0.74,1.08,1.27,1.55c0.53,0.47,1.1,0.83,1.69,1.07   c0.59,0.24,1.19,0.36,1.78,0.36c0.59,0,1.17-0.13,1.72-0.38c0.56-0.25,1.07-0.63,1.53-1.15c0.46-0.52,0.78-1.07,0.95-1.65   s0.22-1.16,0.15-1.74s-0.28-1.14-0.6-1.7c-0.32-0.55-0.75-1.06-1.28-1.53c-0.53-0.47-1.09-0.83-1.68-1.08   c-0.59-0.25-1.17-0.38-1.76-0.39c-0.59-0.01-1.16,0.11-1.71,0.36C1530.58,1459.35,1530.07,1459.73,1529.61,1460.25z"></path>		<path class="st2" d="M1547.89,1468.14l1.95,2.31l-5.11,9.85l10.57-3.39l1.95,2.31l-14.08,4.18l-1.74-2.06L1547.89,1468.14z"></path>		<path class="st2" d="M1561.26,1484.88l6.15,9.67l-2.02,1.28l-4.69-7.37l-2.27,1.44l4.15,6.52l-1.9,1.21l-4.15-6.52l-3.16,2.01   l4.78,7.52l-2.01,1.28l-6.25-9.82L1561.26,1484.88z"></path>		<path class="st2" d="M1575.57,1510.94l1.72,4.62c0.5,1.35,0.79,2.58,0.87,3.68s-0.03,2.08-0.33,2.94s-0.77,1.59-1.43,2.19   c-0.65,0.61-1.46,1.09-2.42,1.45c-0.92,0.34-1.82,0.5-2.71,0.47s-1.75-0.26-2.56-0.7c-0.81-0.44-1.56-1.1-2.25-1.97   c-0.69-0.88-1.29-1.99-1.79-3.34l-1.72-4.64L1575.57,1510.94z M1567.12,1520.05c0.28,0.76,0.63,1.4,1.04,1.9   c0.41,0.5,0.87,0.88,1.37,1.13c0.5,0.25,1.05,0.38,1.63,0.38c0.58,0,1.19-0.11,1.82-0.35c0.62-0.23,1.14-0.53,1.57-0.91   c0.43-0.38,0.74-0.82,0.95-1.34c0.2-0.51,0.29-1.09,0.27-1.74s-0.18-1.35-0.46-2.11l-1-2.7l-8.17,3.04L1567.12,1520.05z"></path>		<path class="st2" d="M1583.27,1535.48l0.6,2.83l-11.81,9.16l-0.59-2.8l1.99-1.52l-1.63-7.69l-2.43-0.55l-0.6-2.81L1583.27,1535.48   z M1575.43,1541.62l5.38-4.11l-6.57-1.5L1575.43,1541.62z"></path>		<path class="st2" d="M1586.1,1551.79l0.16,2.72l-3.9,8.62l4.38-0.25l0.16,2.72l-13.43,0.78l-0.16-2.72l6.16-0.36l3.87-8.62   l-10.52,0.61l-0.16-2.72L1586.1,1551.79z"></path>		<path class="st2" d="M1580.15,1573.05c0.95,0.09,1.83,0.35,2.62,0.79c0.79,0.44,1.46,1.02,2.01,1.76s0.95,1.62,1.21,2.64   c0.26,1.02,0.33,2.15,0.21,3.4c-0.1,1.09-0.3,2.08-0.61,2.97c-0.3,0.89-0.72,1.71-1.24,2.45l-1.94-1.44   c0.18-0.22,0.34-0.48,0.49-0.77s0.28-0.61,0.39-0.95c0.11-0.34,0.21-0.69,0.29-1.05c0.08-0.36,0.14-0.73,0.17-1.09   c0.08-0.87,0.04-1.65-0.11-2.35c-0.15-0.7-0.4-1.3-0.74-1.8c-0.34-0.5-0.77-0.9-1.28-1.19c-0.51-0.29-1.09-0.47-1.73-0.53   c-0.66-0.06-1.28,0.01-1.86,0.21c-0.58,0.2-1.09,0.52-1.54,0.96c-0.45,0.44-0.81,0.99-1.1,1.66c-0.29,0.67-0.47,1.44-0.55,2.3   c-0.04,0.39-0.04,0.79-0.02,1.18c0.02,0.39,0.07,0.78,0.13,1.15s0.15,0.73,0.26,1.08c0.11,0.35,0.23,0.68,0.37,0.99l-2.17,1.06   c-0.4-0.77-0.69-1.65-0.87-2.64s-0.22-2.02-0.12-3.1c0.13-1.38,0.42-2.57,0.87-3.58c0.45-1.01,1.02-1.83,1.71-2.47   c0.69-0.64,1.48-1.1,2.36-1.37C1578.25,1573.05,1579.17,1572.96,1580.15,1573.05z"></path>		<path class="st2" d="M1584.09,1595.47l-2.64,11.15l-2.33-0.55l2.01-8.49l-2.61-0.62l-1.78,7.52l-2.19-0.52l1.78-7.52l-3.64-0.86   l-2.05,8.67l-2.32-0.55l2.68-11.33L1584.09,1595.47z"></path>		<path class="st2" d="M1577.09,1624.08l-0.87,2.03l-17.81-7.65l0.87-2.03L1577.09,1624.08z"></path>		<path class="st2" d="M1566.23,1641.74l-1.48,2.29l-9.3-6l-4.24,6.58l-2.01-1.3l5.72-8.87L1566.23,1641.74z"></path>		<path class="st2" d="M1556.36,1656.03l-1.7,2.15l-10.55-8.35l1.7-2.15L1556.36,1656.03z"></path>		<path class="st2" d="M1550.74,1663.09l-2.11,2.17l-10.3-4.13l4.41,10.19l-2.11,2.17l-5.53-13.61l1.88-1.94L1550.74,1663.09z"></path>		<path class="st2" d="M1535.39,1678.03l-9.02,7.07l-1.48-1.88l6.87-5.38l-1.66-2.11l-6.08,4.77l-1.39-1.77l6.08-4.77l-2.31-2.95   l-7.01,5.5l-1.47-1.88l9.16-7.18L1535.39,1678.03z"></path>		<path class="st2" d="M1510.97,1694.71l-2.44,1.23l-4.97-9.88l-6.99,3.51l-1.08-2.14l9.43-4.74L1510.97,1694.71z"></path>		<path class="st2" d="M1493.15,1695.87c0.32,0.96,0.44,1.9,0.36,2.82c-0.08,0.92-0.35,1.77-0.8,2.56s-1.06,1.49-1.85,2.11   c-0.79,0.62-1.73,1.11-2.82,1.47c-1.08,0.36-2.13,0.54-3.13,0.53c-1-0.01-1.92-0.2-2.75-0.56s-1.56-0.88-2.18-1.56   c-0.62-0.68-1.09-1.5-1.42-2.47c-0.33-0.97-0.45-1.92-0.37-2.84s0.34-1.79,0.79-2.59s1.06-1.51,1.85-2.13   c0.79-0.62,1.72-1.12,2.81-1.48c1.09-0.37,2.13-0.54,3.14-0.51s1.92,0.22,2.76,0.58s1.56,0.9,2.19,1.58   C1492.34,1694.07,1492.82,1694.9,1493.15,1695.87z M1490.56,1696.73c-0.22-0.66-0.54-1.21-0.95-1.66s-0.89-0.79-1.44-1.02   c-0.55-0.23-1.14-0.35-1.78-0.36c-0.64-0.01-1.3,0.1-1.97,0.33c-0.67,0.23-1.26,0.54-1.77,0.93c-0.51,0.39-0.91,0.85-1.2,1.36   c-0.29,0.51-0.47,1.07-0.53,1.68c-0.06,0.61,0.02,1.24,0.24,1.9c0.22,0.66,0.54,1.21,0.95,1.65c0.42,0.44,0.89,0.77,1.43,0.99   c0.54,0.22,1.13,0.33,1.77,0.33c0.64,0,1.29-0.12,1.97-0.34s1.27-0.53,1.78-0.92c0.51-0.38,0.92-0.83,1.21-1.33   c0.3-0.5,0.48-1.06,0.54-1.66C1490.86,1698.02,1490.78,1697.39,1490.56,1696.73z"></path>		<path class="st2" d="M1474.58,1708.64l-2.97,0.53l-5.97-9.36l-2.35,10.85l-2.97,0.53l3.43-14.28l2.66-0.48L1474.58,1708.64z"></path>		<path class="st2" d="M1453.39,1711.83l-11.45,0.49l-0.1-2.39l8.72-0.37l-0.11-2.68l-7.72,0.33l-0.09-2.25l7.72-0.33l-0.16-3.74   l-8.9,0.38l-0.1-2.38l11.63-0.49L1453.39,1711.83z"></path>		<path class="st2" d="M1423.72,1711.21l-4.87-0.81c-1.42-0.24-2.63-0.6-3.62-1.08c-1-0.48-1.79-1.06-2.38-1.75   c-0.59-0.68-0.99-1.46-1.19-2.33c-0.2-0.87-0.22-1.81-0.05-2.82c0.16-0.96,0.48-1.82,0.95-2.59c0.47-0.76,1.1-1.38,1.88-1.87   c0.78-0.48,1.73-0.81,2.83-0.97s2.37-0.12,3.79,0.11l4.88,0.83L1423.72,1711.21z M1420.03,1699.34c-0.8-0.13-1.53-0.15-2.17-0.04   c-0.64,0.1-1.19,0.31-1.66,0.62s-0.85,0.72-1.14,1.22c-0.29,0.5-0.5,1.09-0.61,1.75c-0.11,0.65-0.11,1.25,0.01,1.81   s0.35,1.05,0.69,1.49c0.34,0.43,0.8,0.8,1.37,1.1c0.57,0.3,1.26,0.52,2.06,0.65l2.84,0.47l1.44-8.6L1420.03,1699.34z"></path>		<path class="st2" d="M1398.6,1705.67l-2.75-0.89l-2.06-14.8l2.73,0.88l0.33,2.49l7.48,2.42l1.69-1.83l2.74,0.88L1398.6,1705.67z    M1397.18,1695.81l0.89,6.71l4.57-4.95L1397.18,1695.81z"></path>		<path class="st2" d="M1383.03,1699.99l-2.44-1.22l-5.53-7.68l-1.97,3.92l-2.44-1.22l6.03-12.03l2.44,1.22l-2.77,5.52l5.54,7.66   l4.72-9.42l2.44,1.22L1383.03,1699.99z"></path>		<path class="st2" d="M1367.56,1684.21c-0.55,0.78-1.22,1.41-1.99,1.88s-1.62,0.75-2.53,0.86c-0.91,0.1-1.88,0.01-2.89-0.28   c-1.01-0.29-2.03-0.79-3.05-1.51c-0.89-0.63-1.65-1.31-2.27-2.01c-0.62-0.71-1.12-1.48-1.5-2.3l2.22-0.96   c0.1,0.26,0.24,0.53,0.42,0.81c0.18,0.28,0.39,0.55,0.62,0.82s0.49,0.53,0.77,0.78c0.28,0.25,0.56,0.48,0.86,0.69   c0.71,0.5,1.41,0.87,2.09,1.08c0.68,0.22,1.33,0.31,1.93,0.26c0.61-0.05,1.16-0.22,1.67-0.51c0.51-0.3,0.95-0.71,1.32-1.23   c0.38-0.54,0.64-1.12,0.75-1.72s0.09-1.2-0.06-1.81c-0.16-0.61-0.45-1.2-0.89-1.79c-0.43-0.58-1.01-1.13-1.72-1.63   c-0.32-0.23-0.66-0.43-1.01-0.61c-0.35-0.18-0.71-0.33-1.06-0.46s-0.71-0.23-1.07-0.31c-0.36-0.08-0.7-0.14-1.04-0.17l0.17-2.41   c0.87,0.04,1.78,0.23,2.72,0.57c0.94,0.34,1.85,0.82,2.74,1.45c1.13,0.8,2.02,1.65,2.66,2.54c0.65,0.9,1.07,1.8,1.28,2.72   c0.21,0.92,0.21,1.83,0.01,2.73S1368.13,1683.41,1367.56,1684.21z"></path>		<path class="st2" d="M1346.19,1676.4l-8.33-7.86l1.64-1.74l6.35,5.99l1.84-1.95l-5.62-5.31l1.54-1.63l5.62,5.3l2.57-2.72   l-6.48-6.11l1.64-1.73l8.47,7.99L1346.19,1676.4z"></path>		<path class="st2" d="M1324.9,1656.06l-1.33-1.77l15.51-11.63l1.33,1.77L1324.9,1656.06z"></path>		<path class="st2" d="M1315.01,1637.86l-1.25-2.42l9.83-5.08l-3.59-6.95l2.13-1.1l4.85,9.38L1315.01,1637.86z"></path>		<path class="st2" d="M1307.52,1622.17l-1.02-2.55l12.5-4.99l1.02,2.55L1307.52,1622.17z"></path>		<path class="st2" d="M1304.2,1613.8l-0.82-2.91l8.72-6.87l-11.03-1.27l-0.82-2.91l14.55,2l0.74,2.6L1304.2,1613.8z"></path>		<path class="st2" d="M1298.93,1593.02l-1.6-11.35l2.37-0.33l1.22,8.64l2.66-0.38l-1.08-7.66l2.23-0.31l1.08,7.66l3.71-0.52   l-1.25-8.82l2.36-0.33l1.63,11.52L1298.93,1593.02z"></path>		<path class="st2" d="M1296.71,1563.52l0.16-2.72l11.04,0.63l0.44-7.81l2.39,0.14l-0.6,10.54L1296.71,1563.52z"></path>		<path class="st2" d="M1304.6,1547.5c-1-0.2-1.87-0.56-2.63-1.1c-0.75-0.53-1.36-1.19-1.82-1.97s-0.76-1.67-0.9-2.66   s-0.1-2.05,0.12-3.17c0.22-1.12,0.59-2.11,1.1-2.98c0.51-0.86,1.13-1.57,1.86-2.11c0.73-0.54,1.54-0.91,2.44-1.11s1.85-0.2,2.84,0   c1,0.2,1.88,0.57,2.65,1.1s1.38,1.19,1.85,1.97s0.78,1.67,0.93,2.67s0.11,2.05-0.11,3.17c-0.23,1.13-0.6,2.12-1.12,2.98   s-1.15,1.56-1.88,2.1s-1.56,0.91-2.46,1.11S1305.6,1547.7,1304.6,1547.5z M1305.13,1544.82c0.68,0.14,1.32,0.14,1.91,0   s1.13-0.38,1.6-0.74c0.47-0.36,0.87-0.81,1.2-1.37s0.56-1.18,0.7-1.88s0.16-1.36,0.07-2c-0.09-0.64-0.28-1.21-0.58-1.72   c-0.3-0.51-0.7-0.94-1.19-1.3c-0.5-0.36-1.09-0.6-1.77-0.74c-0.68-0.14-1.32-0.13-1.91,0.01s-1.12,0.39-1.58,0.75   c-0.46,0.36-0.85,0.81-1.16,1.37c-0.32,0.55-0.54,1.18-0.68,1.88c-0.14,0.7-0.17,1.36-0.09,2c0.08,0.63,0.26,1.21,0.55,1.72   c0.29,0.51,0.68,0.94,1.17,1.3C1303.87,1544.44,1304.45,1544.69,1305.13,1544.82z"></path>		<path class="st2" d="M1302.77,1525.04l1.02-2.84l11.09-0.51l-8.23-7.44l1.02-2.84l10.67,10.09l-0.91,2.54L1302.77,1525.04z"></path>		<path class="st2" d="M1310.57,1505.07l5.29-10.16l2.12,1.11l-4.03,7.74l2.38,1.24l3.57-6.86l1.99,1.04l-3.57,6.86l3.32,1.73   l4.12-7.9l2.11,1.1l-5.38,10.32L1310.57,1505.07z"></path>		<path class="st2" d="M1325.95,1479.67l3.14-3.8c0.92-1.11,1.83-1.98,2.75-2.6s1.82-1.02,2.71-1.19s1.76-0.12,2.61,0.14   c0.85,0.26,1.67,0.72,2.47,1.37c0.75,0.62,1.34,1.33,1.76,2.12c0.42,0.79,0.65,1.64,0.67,2.57s-0.17,1.9-0.58,2.94   c-0.41,1.04-1.08,2.11-1.99,3.22l-3.16,3.81L1325.95,1479.67z M1338.08,1482.42c0.52-0.63,0.89-1.25,1.12-1.85   c0.23-0.61,0.33-1.19,0.29-1.75c-0.04-0.56-0.2-1.09-0.49-1.6c-0.29-0.51-0.69-0.97-1.21-1.4c-0.51-0.42-1.03-0.72-1.57-0.9   c-0.54-0.18-1.08-0.23-1.63-0.15c-0.55,0.08-1.09,0.29-1.64,0.64s-1.08,0.83-1.6,1.46l-1.83,2.22l6.73,5.55L1338.08,1482.42z"></path>		<path class="st2" d="M1343.3,1460.71l2.14-1.94l13.86,5.61l-2.12,1.92l-2.32-0.96l-5.83,5.28l0.75,2.38l-2.13,1.93L1343.3,1460.71   z M1352.55,1464.4l-6.26-2.58l2,6.43L1352.55,1464.4z"></path>		<path class="st2" d="M1355.97,1450.05l2.28-1.51l9.41-0.97l-2.42-3.66l2.27-1.51l7.43,11.22l-2.27,1.51l-3.41-5.15l-9.4,0.99   l5.82,8.78l-2.27,1.51L1355.97,1450.05z"></path>		<path class="st2" d="M1377.35,1444.5c-0.4-0.87-0.61-1.76-0.63-2.66c-0.02-0.9,0.15-1.78,0.52-2.62s0.92-1.63,1.68-2.36   s1.69-1.36,2.83-1.89c1-0.46,1.95-0.78,2.88-0.97c0.92-0.18,1.84-0.23,2.74-0.15l-0.27,2.4c-0.28-0.04-0.58-0.05-0.91-0.03   c-0.33,0.02-0.67,0.06-1.02,0.13s-0.7,0.16-1.06,0.28c-0.36,0.11-0.7,0.25-1.03,0.4c-0.79,0.37-1.45,0.79-1.98,1.27   c-0.53,0.48-0.93,1-1.19,1.55c-0.26,0.55-0.39,1.12-0.39,1.71s0.14,1.18,0.41,1.76c0.28,0.6,0.65,1.11,1.11,1.5   c0.46,0.4,1,0.68,1.6,0.85s1.27,0.21,1.99,0.12c0.72-0.08,1.48-0.31,2.27-0.68c0.36-0.17,0.7-0.36,1.03-0.57s0.64-0.45,0.93-0.69   s0.56-0.5,0.81-0.77c0.25-0.27,0.47-0.54,0.67-0.82l2.01,1.35c-0.47,0.74-1.08,1.43-1.85,2.07c-0.76,0.65-1.64,1.2-2.62,1.65   c-1.26,0.58-2.43,0.93-3.53,1.04s-2.1,0.03-3-0.25c-0.9-0.28-1.69-0.73-2.37-1.35C1378.31,1446.14,1377.76,1445.39,1377.35,1444.5   z"></path>		<path class="st2" d="M1394.79,1429.85l10.97-3.29l0.69,2.29l-8.36,2.51l0.77,2.57l7.4-2.22l0.65,2.15l-7.4,2.22l1.08,3.59   l8.53-2.56l0.69,2.28l-11.15,3.35L1394.79,1429.85z"></path>		<path class="st2" d="M1423.05,1421.58l2.2-0.26l2.3,19.25l-2.2,0.26L1423.05,1421.58z"></path>	</g></g></svg>